<svg width="13" height="11" viewBox="0 0 13 11" fill="none" xmlns="http://www.w3.org/2000/svg">
<path fill-rule="evenodd" clip-rule="evenodd" d="M6.73815 0.230252C6.89052 0.0828217 7.09715 0 7.3126 0C7.52805 0 7.73467 0.0828217 7.88704 0.230252L12.7621 4.94875C12.9144 5.09623 13 5.29622 13 5.50475C13 5.71328 12.9144 5.91327 12.7621 6.06074L7.88704 10.7792C7.7338 10.9225 7.52856 11.0018 7.31552 11C7.10248 10.9982 6.8987 10.9155 6.74805 10.7697C6.5974 10.6239 6.51195 10.4266 6.5101 10.2204C6.50825 10.0142 6.59015 9.81557 6.73815 9.66725L10.2263 6.29116H0.812511C0.59702 6.29116 0.390354 6.20831 0.237979 6.06083C0.0856035 5.91335 0 5.71332 0 5.50475C0 5.29618 0.0856035 5.09615 0.237979 4.94867C0.390354 4.80119 0.59702 4.71833 0.812511 4.71833H10.2263L6.73815 1.34224C6.58583 1.19477 6.50026 0.994778 6.50026 0.786248C6.50026 0.577719 6.58583 0.377727 6.73815 0.230252Z" fill="#2C2762"/>
</svg>
