<svg width="29" height="30" viewBox="0 0 29 30" fill="none" xmlns="http://www.w3.org/2000/svg">
<path d="M0.494976 13.9662L-6.78092e-07 14.4612L0.989946 15.4511L1.48493 14.9562L0.494976 13.9662ZM14.4612 0.989885L14.9562 0.494884L14.4612 -0.000115073L13.9663 0.494884L14.4612 0.989885ZM27.4376 14.9562L27.9326 15.4511L28.9225 14.4612L28.4275 13.9662L27.4376 14.9562ZM13.7612 29.2741L13.7612 29.9741L15.1612 29.9741L15.1612 29.2741L13.7612 29.2741ZM1.48493 14.9562L14.9562 1.48478L13.9663 0.494884L0.494976 13.9662L1.48493 14.9562ZM13.9663 1.48478L27.4376 14.9562L28.4275 13.9662L14.9562 0.494884L13.9663 1.48478ZM13.7612 0.989885L13.7612 29.2741L15.1612 29.2741L15.1612 0.989885L13.7612 0.989885Z" fill="#FF0032"/>
</svg>
