<svg width="27" height="27" viewBox="0 0 27 27" fill="none" xmlns="http://www.w3.org/2000/svg">
<path d="M7.42517 4.05005C6.53007 4.05005 5.67162 4.40563 5.03869 5.03856C4.40575 5.6715 4.05017 6.52994 4.05017 7.42505V8.10005H22.9502V7.42505C22.9502 6.52994 22.5946 5.6715 21.9617 5.03856C21.3287 4.40563 20.4703 4.05005 19.5752 4.05005H7.42517ZM22.9502 9.45005H4.05017V19.575C4.05017 20.4702 4.40575 21.3286 5.03869 21.9615C5.67162 22.5945 6.53007 22.95 7.42517 22.95H19.5752C20.4703 22.95 21.3287 22.5945 21.9617 21.9615C22.5946 21.3286 22.9502 20.4702 22.9502 19.575V9.45005ZM10.8002 13.5C10.8002 13.8581 10.6579 14.2015 10.4048 14.4546C10.1516 14.7078 9.80821 14.85 9.45017 14.85C9.09213 14.85 8.74875 14.7078 8.49558 14.4546C8.2424 14.2015 8.10017 13.8581 8.10017 13.5C8.10017 13.142 8.2424 12.7986 8.49558 12.5455C8.74875 12.2923 9.09213 12.15 9.45017 12.15C9.80821 12.15 10.1516 12.2923 10.4048 12.5455C10.6579 12.7986 10.8002 13.142 10.8002 13.5ZM9.45017 18.9C9.09213 18.9 8.74875 18.7578 8.49558 18.5046C8.2424 18.2515 8.10017 17.9081 8.10017 17.55C8.10017 17.192 8.2424 16.8486 8.49558 16.5955C8.74875 16.3423 9.09213 16.2 9.45017 16.2C9.80821 16.2 10.1516 16.3423 10.4048 16.5955C10.6579 16.8486 10.8002 17.192 10.8002 17.55C10.8002 17.9081 10.6579 18.2515 10.4048 18.5046C10.1516 18.7578 9.80821 18.9 9.45017 18.9ZM14.8502 13.5C14.8502 13.8581 14.7079 14.2015 14.4548 14.4546C14.2016 14.7078 13.8582 14.85 13.5002 14.85C13.1421 14.85 12.7988 14.7078 12.5456 14.4546C12.2924 14.2015 12.1502 13.8581 12.1502 13.5C12.1502 13.142 12.2924 12.7986 12.5456 12.5455C12.7988 12.2923 13.1421 12.15 13.5002 12.15C13.8582 12.15 14.2016 12.2923 14.4548 12.5455C14.7079 12.7986 14.8502 13.142 14.8502 13.5ZM13.5002 18.9C13.1421 18.9 12.7988 18.7578 12.5456 18.5046C12.2924 18.2515 12.1502 17.9081 12.1502 17.55C12.1502 17.192 12.2924 16.8486 12.5456 16.5955C12.7988 16.3423 13.1421 16.2 13.5002 16.2C13.8582 16.2 14.2016 16.3423 14.4548 16.5955C14.7079 16.8486 14.8502 17.192 14.8502 17.55C14.8502 17.9081 14.7079 18.2515 14.4548 18.5046C14.2016 18.7578 13.8582 18.9 13.5002 18.9ZM18.9002 13.5C18.9002 13.8581 18.7579 14.2015 18.5048 14.4546C18.2516 14.7078 17.9082 14.85 17.5502 14.85C17.1921 14.85 16.8488 14.7078 16.5956 14.4546C16.3424 14.2015 16.2002 13.8581 16.2002 13.5C16.2002 13.142 16.3424 12.7986 16.5956 12.5455C16.8488 12.2923 17.1921 12.15 17.5502 12.15C17.9082 12.15 18.2516 12.2923 18.5048 12.5455C18.7579 12.7986 18.9002 13.142 18.9002 13.5Z" fill="#727272"/>
</svg>
