<svg width="24" height="25" viewBox="0 0 24 25" fill="none" xmlns="http://www.w3.org/2000/svg">
<path d="M4.29279 8.79299C4.48031 8.60552 4.73462 8.5002 4.99979 8.5002C5.26495 8.5002 5.51926 8.60552 5.70679 8.79299L11.9998 15.086L18.2928 8.79299C18.385 8.69748 18.4954 8.6213 18.6174 8.56889C18.7394 8.51648 18.8706 8.48889 19.0034 8.48774C19.1362 8.48659 19.2678 8.51189 19.3907 8.56217C19.5136 8.61245 19.6253 8.6867 19.7192 8.78059C19.8131 8.87449 19.8873 8.98614 19.9376 9.10904C19.9879 9.23193 20.0132 9.36361 20.012 9.49639C20.0109 9.62917 19.9833 9.76039 19.9309 9.88239C19.8785 10.0044 19.8023 10.1147 19.7068 10.207L12.7068 17.207C12.5193 17.3945 12.265 17.4998 11.9998 17.4998C11.7346 17.4998 11.4803 17.3945 11.2928 17.207L4.29279 10.207C4.10532 10.0195 4 9.76515 4 9.49999C4 9.23483 4.10532 8.98052 4.29279 8.79299Z" fill="#292D33"/>
</svg>
