<svg width="15" height="14" viewBox="0 0 15 14" fill="none" xmlns="http://www.w3.org/2000/svg">
<g clip-path="url(#clip0_42_10634)">
<path d="M2.82865 3C2.36113 3.00868 1.99378 3.03039 1.72663 3.06513C1.45947 3.09987 1.23525 3.15632 1.05396 3.23448C0.968088 3.26921 0.882216 3.31915 0.796344 3.38428C0.710471 3.44941 0.643682 3.51672 0.595975 3.58619C0.471937 3.74251 0.38845 3.9162 0.345514 4.10725C0.302578 4.29831 0.314505 4.48936 0.381294 4.68042C0.409918 4.75858 0.457625 4.8541 0.524415 4.967C0.591204 5.0799 0.667535 5.18845 0.753407 5.29266C0.848821 5.39687 0.956161 5.5076 1.07543 5.62484C1.1947 5.74208 1.37837 5.91793 1.62644 6.15241C1.90314 6.40425 2.1369 6.61268 2.32773 6.77768C2.51856 6.94268 2.76186 7.14242 3.05765 7.3769L3.37251 7.6244V9.17456C3.37251 9.94746 3.3749 10.4555 3.37967 10.6987C3.38444 10.9418 3.39159 11.1546 3.40114 11.337C3.42022 11.7885 3.47031 12.1294 3.55141 12.3595C3.63251 12.5897 3.76371 12.7568 3.94499 12.8611C3.9927 12.8958 4.04279 12.9218 4.09527 12.9392C4.14775 12.9566 4.20261 12.9739 4.25986 12.9913C4.31711 13 4.39105 13.0022 4.48169 12.9978C4.57234 12.9935 4.65582 12.9826 4.73216 12.9653C4.95161 12.9218 5.21161 12.8263 5.51216 12.6787C5.81271 12.531 6.2874 12.2749 6.93621 11.9101C7.2797 11.7104 7.51823 11.5693 7.65181 11.4868C7.78539 11.4043 7.88558 11.3283 7.95237 11.2588C8.04778 11.1719 8.11695 11.0743 8.15989 10.9657C8.20283 10.8571 8.23384 10.7073 8.25292 10.5163C8.25292 10.4729 8.25292 10.3144 8.25292 10.0408C8.25292 9.76726 8.25292 9.41772 8.25292 8.99218V7.6244L8.45329 7.48111C8.73953 7.25532 8.96852 7.07078 9.14026 6.92749C9.31201 6.78419 9.51238 6.60399 9.74137 6.38689C9.98945 6.16978 10.1946 5.98524 10.3568 5.83326C10.519 5.68128 10.6478 5.54885 10.7432 5.43595C10.8959 5.27095 11.0151 5.12115 11.101 4.98654C11.1869 4.85193 11.2489 4.7195 11.2871 4.58923C11.3443 4.38081 11.3276 4.15719 11.237 3.91837C11.1463 3.67955 11.0056 3.49501 10.8148 3.36474C10.6621 3.26053 10.4784 3.18237 10.2638 3.13026C10.0491 3.07816 9.75568 3.03908 9.38357 3.01303C9.3454 3.01303 9.27146 3.01086 9.16173 3.00651C9.05201 3.00217 8.9399 3 8.8254 3C8.68228 3 8.31017 3 7.70906 3C7.10795 3 6.46391 3 5.77693 3C5.08996 3 4.45546 3 3.87343 3C3.29141 3 2.94315 3 2.82865 3Z" fill="#353F4B"/>
</g>
<defs>
<clipPath id="clip0_42_10634">
<rect width="14" height="14" fill="white" transform="matrix(1 0 0 -1 0.320312 14)"/>
</clipPath>
</defs>
</svg>
