<svg width="33" height="32" viewBox="0 0 33 32" fill="none" xmlns="http://www.w3.org/2000/svg">
<g id="icon_twitter" clip-path="url(#clip0_15_3587)">
<path id="Vector" d="M16.032 0.640137C7.54879 0.640137 0.671997 7.51693 0.671997 16.0001C0.671997 24.4833 7.54879 31.3601 16.032 31.3601C24.5152 31.3601 31.392 24.4833 31.392 16.0001C31.392 7.51693 24.5152 0.640137 16.032 0.640137ZM22.28 13.2225C22.2864 13.3537 22.288 13.4849 22.288 13.6129C22.288 17.6129 19.2464 22.2225 13.6816 22.2225C12.0373 22.2252 10.4271 21.753 9.04479 20.8625C9.27999 20.8913 9.52159 20.9025 9.76639 20.9025C11.184 20.9025 12.488 20.4209 13.5232 19.6081C12.8923 19.5957 12.2811 19.3868 11.7746 19.0105C11.2681 18.6343 10.8916 18.1093 10.6976 17.5089C11.1506 17.5951 11.6173 17.577 12.0624 17.4561C11.3777 17.3177 10.7619 16.9466 10.3195 16.406C9.87714 15.8653 9.63536 15.1883 9.63519 14.4897V14.4529C10.0432 14.6785 10.5104 14.8161 11.0064 14.8321C10.3645 14.4048 9.91004 13.7484 9.73606 12.9971C9.56207 12.2459 9.68167 11.4565 10.0704 10.7905C10.8303 11.7249 11.778 12.4893 12.8521 13.0342C13.9262 13.5791 15.1027 13.8924 16.3056 13.9537C16.1527 13.3046 16.2185 12.6232 16.4928 12.0153C16.7671 11.4075 17.2346 10.9073 17.8225 10.5925C18.4104 10.2778 19.0859 10.1661 19.7438 10.2748C20.4018 10.3835 21.0054 10.7066 21.4608 11.1937C22.1378 11.0598 22.7871 10.8114 23.3808 10.4593C23.1551 11.1603 22.6827 11.7556 22.0512 12.1345C22.6509 12.0623 23.2366 11.901 23.7888 11.6561C23.3832 12.264 22.8722 12.7944 22.28 13.2225Z" fill="#727272"/>
</g>
<defs>
<clipPath id="clip0_15_3587">
<rect width="32" height="32" fill="white" transform="translate(0.0313721)"/>
</clipPath>
</defs>
</svg>
