<svg width="33" height="32" viewBox="0 0 33 32" fill="none" xmlns="http://www.w3.org/2000/svg">
<g id="icon_google" clip-path="url(#clip0_15_3584)">
<path id="Vector" d="M16.2131 0.640137C7.72994 0.640137 0.853149 7.51693 0.853149 16.0001C0.853149 24.4833 7.72994 31.3601 16.2131 31.3601C24.6963 31.3601 31.5731 24.4833 31.5731 16.0001C31.5731 7.51693 24.6963 0.640137 16.2131 0.640137ZM15.3283 22.5937C14.3635 23.0625 13.3251 23.1121 12.9235 23.1121H12.7171C12.0899 23.1121 8.96834 22.9681 8.96834 20.1249C8.96834 17.3313 12.3683 17.1121 13.4099 17.1121H13.4371C12.8355 16.3089 12.9603 15.4993 12.9603 15.4993C12.8858 15.5037 12.8111 15.5058 12.7363 15.5057C12.3443 15.5057 11.5875 15.4433 10.9379 15.0241C10.1411 14.5121 9.73794 13.6401 9.73794 12.4337C9.73794 9.02413 13.4611 8.88653 13.4979 8.88333H17.2163V8.96493C17.2163 9.38093 16.4691 9.46253 15.9603 9.53133C15.7875 9.55693 15.4403 9.59053 15.3427 9.64013C16.2851 10.1441 16.4371 10.9345 16.4371 12.1121C16.4371 13.4529 15.9123 14.1617 15.3555 14.6593C15.0099 14.9681 14.7395 15.2097 14.7395 15.5345C14.7395 15.8529 15.1107 16.1777 15.5427 16.5569C16.2483 17.1793 17.2163 18.0257 17.2163 19.4545C17.2163 20.9313 16.5811 21.9873 15.3283 22.5937ZM23.4131 16.0001H21.0131V18.4001H19.4131V16.0001H17.0131V14.4001H19.4131V12.0001H21.0131V14.4001H23.4131V16.0001ZM13.3699 17.8401C13.2861 17.8402 13.2023 17.8434 13.1187 17.8497C12.4392 17.8889 11.7919 18.1528 11.2787 18.6001C10.8083 19.0257 10.5683 19.5633 10.6019 20.1057C10.6739 21.2433 11.8947 21.9089 13.3779 21.8033C14.8371 21.6977 15.8099 20.8561 15.7395 19.7185C15.6723 18.6497 14.7427 17.8401 13.3699 17.8401ZM14.7683 11.6561C14.3811 10.2961 13.7571 9.89293 12.7875 9.89293C12.6826 9.8937 12.5783 9.90822 12.4771 9.93613C12.0563 10.0561 11.7219 10.4065 11.5363 10.9281C11.3459 11.4561 11.3347 12.0065 11.4979 12.6337C11.7939 13.7553 12.5907 14.5681 13.3939 14.5681C13.499 14.5691 13.6036 14.5546 13.7043 14.5249C14.5827 14.2785 15.1331 12.9377 14.7683 11.6561Z" fill="#727272"/>
</g>
<defs>
<clipPath id="clip0_15_3584">
<rect width="32" height="32" fill="white" transform="translate(0.212524)"/>
</clipPath>
</defs>
</svg>
