<svg width="33" height="32" viewBox="0 0 33 32" fill="none" xmlns="http://www.w3.org/2000/svg">
<g id="icon_youtube" clip-path="url(#clip0_15_3585)">
<path id="Vector" d="M19.3843 15.7329L15.7907 14.0561C15.4771 13.9105 15.2195 14.0737 15.2195 14.4209V17.5793C15.2195 17.9265 15.4771 18.0897 15.7907 17.9441L19.3827 16.2673C19.6979 16.1201 19.6979 15.8801 19.3843 15.7329ZM16.8195 0.640137C8.33627 0.640137 1.45947 7.51693 1.45947 16.0001C1.45947 24.4833 8.33627 31.3601 16.8195 31.3601C25.3026 31.3601 32.1794 24.4833 32.1794 16.0001C32.1794 7.51693 25.3026 0.640137 16.8195 0.640137ZM16.8195 22.2401C8.95707 22.2401 8.81947 21.5313 8.81947 16.0001C8.81947 10.4689 8.95707 9.76013 16.8195 9.76013C24.6818 9.76013 24.8194 10.4689 24.8194 16.0001C24.8194 21.5313 24.6818 22.2401 16.8195 22.2401Z" fill="#727272"/>
</g>
<defs>
<clipPath id="clip0_15_3585">
<rect width="32" height="32" fill="white" transform="translate(0.818848)"/>
</clipPath>
</defs>
</svg>
