<svg width="33" height="32" viewBox="0 0 33 32" fill="none" xmlns="http://www.w3.org/2000/svg">
<g id="icon_linkedin" clip-path="url(#clip0_15_3586)">
<path id="Vector" d="M16.4257 0.640137C7.94247 0.640137 1.06567 7.51693 1.06567 16.0001C1.06567 24.4833 7.94247 31.3601 16.4257 31.3601C24.9088 31.3601 31.7856 24.4833 31.7856 16.0001C31.7856 7.51693 24.9088 0.640137 16.4257 0.640137ZM12.6657 22.3665H9.55526V12.3569H12.6657V22.3665ZM11.0913 11.1281C10.1089 11.1281 9.47367 10.4321 9.47367 9.57133C9.47367 8.69293 10.1281 8.01773 11.1313 8.01773C12.1345 8.01773 12.7489 8.69293 12.7681 9.57133C12.7681 10.4321 12.1345 11.1281 11.0913 11.1281ZM24.0257 22.3665H20.9153V16.8193C20.9153 15.5281 20.4641 14.6513 19.3393 14.6513C18.4801 14.6513 17.9697 15.2449 17.7441 15.8161C17.6609 16.0193 17.6401 16.3073 17.6401 16.5937V22.3649H14.5281V15.5489C14.5281 14.2993 14.4881 13.2545 14.4465 12.3553H17.1489L17.2913 13.7457H17.3537C17.7633 13.0929 18.7665 12.1297 20.4449 12.1297C22.4913 12.1297 24.0257 13.5009 24.0257 16.4481V22.3665Z" fill="#727272"/>
</g>
<defs>
<clipPath id="clip0_15_3586">
<rect width="32" height="32" fill="white" transform="translate(0.425049)"/>
</clipPath>
</defs>
</svg>
