<svg width="32" height="32" viewBox="0 0 32 32" fill="none" xmlns="http://www.w3.org/2000/svg">
<g id="icon_share">
<path id="Vector" d="M19.8048 9.13274V5.72475C19.8048 4.95675 20.6528 4.54395 21.2288 4.97275L21.328 5.05915L28.5232 12.1311C28.8592 12.4623 28.8896 12.9935 28.6144 13.3599L28.5232 13.4639L21.328 20.5407C20.7872 21.0719 19.9088 20.7311 19.8128 20.0063L19.8048 19.8751V16.5215L19.392 16.5583C16.512 16.8671 13.7504 18.1967 11.0928 20.5695C10.4688 21.1263 9.50564 20.6015 9.60804 19.7599C10.4048 13.2159 13.744 9.60794 19.4448 9.15674L19.8048 9.13274ZM8.80004 6.39995C7.73918 6.39995 6.72176 6.82137 5.97162 7.57152C5.22148 8.32166 4.80005 9.33908 4.80005 10.3999V23.1999C4.80005 24.2608 5.22148 25.2782 5.97162 26.0283C6.72176 26.7785 7.73918 27.1999 8.80004 27.1999H21.6C22.6609 27.1999 23.6783 26.7785 24.4284 26.0283C25.1786 25.2782 25.6 24.2608 25.6 23.1999V21.5999C25.6 21.3877 25.5157 21.1843 25.3657 21.0342C25.2157 20.8842 25.0122 20.7999 24.8 20.7999C24.5878 20.7999 24.3844 20.8842 24.2343 21.0342C24.0843 21.1843 24 21.3877 24 21.5999V23.1999C24 23.8364 23.7472 24.4469 23.2971 24.897C22.847 25.3471 22.2365 25.5999 21.6 25.5999H8.80004C8.16352 25.5999 7.55307 25.3471 7.10299 24.897C6.6529 24.4469 6.40005 23.8364 6.40005 23.1999V10.3999C6.40005 9.76342 6.6529 9.15297 7.10299 8.70289C7.55307 8.2528 8.16352 7.99994 8.80004 7.99994H13.6C13.8122 7.99994 14.0157 7.91566 14.1657 7.76563C14.3157 7.6156 14.4 7.41212 14.4 7.19995C14.4 6.98777 14.3157 6.78429 14.1657 6.63426C14.0157 6.48423 13.8122 6.39995 13.6 6.39995H8.80004Z" fill="#727272"/>
</g>
</svg>
