<svg width="33" height="33" viewBox="0 0 33 33" fill="none" xmlns="http://www.w3.org/2000/svg">
<path d="M29.4144 6.95277C29.4131 6.10877 29.0785 5.29945 28.4833 4.70101C27.8882 4.10257 27.0807 3.76348 26.2368 3.75757L18.4128 3.70637C17.9896 3.70351 17.57 3.78462 17.1784 3.94501C16.7867 4.1054 16.4308 4.34189 16.1312 4.64077L5.43999 15.3032C5.14226 15.6001 4.90598 15.9529 4.74467 16.3412C4.58336 16.7296 4.50018 17.146 4.49988 17.5665C4.49958 17.987 4.58218 18.4035 4.74294 18.7921C4.9037 19.1807 5.13948 19.5337 5.43679 19.8311L13.3552 27.7511C13.9553 28.351 14.7691 28.688 15.6176 28.688C16.4661 28.688 17.2799 28.351 17.88 27.7511L28.4896 17.1399C28.7873 16.8423 29.0234 16.4888 29.1843 16.0998C29.3452 15.7107 29.4277 15.2938 29.4272 14.8728L29.4144 6.95277ZM23.0048 11.7C22.5804 11.7 22.1735 11.5314 21.8734 11.2313C21.5733 10.9313 21.4048 10.5243 21.4048 10.1C21.4048 9.67561 21.5733 9.26865 21.8734 8.96859C22.1735 8.66853 22.5804 8.49996 23.0048 8.49996C23.4291 8.49996 23.8361 8.66853 24.1361 8.96859C24.4362 9.26865 24.6048 9.67561 24.6048 10.1C24.6048 10.5243 24.4362 10.9313 24.1361 11.2313C23.8361 11.5314 23.4291 11.7 23.0048 11.7Z" fill="#727272"/>
</svg>
