<svg width="24" height="24" viewBox="0 0 24 24" fill="none" xmlns="http://www.w3.org/2000/svg">
<path d="M4.29303 15.707C4.48056 15.8945 4.73487 15.9998 5.00003 15.9998C5.26519 15.9998 5.5195 15.8945 5.70703 15.707L12 9.41399L18.293 15.707C18.3853 15.8025 18.4956 15.8787 18.6176 15.9311C18.7396 15.9835 18.8709 16.0111 19.0036 16.0122C19.1364 16.0134 19.2681 15.9881 19.391 15.9378C19.5139 15.8875 19.6255 15.8133 19.7194 15.7194C19.8133 15.6255 19.8876 15.5138 19.9379 15.3909C19.9881 15.2681 20.0134 15.1364 20.0123 15.0036C20.0111 14.8708 19.9835 14.7396 19.9311 14.6176C19.8787 14.4956 19.8025 14.3852 19.707 14.293L12.707 7.29299C12.5195 7.10552 12.2652 7.00021 12 7.00021C11.7349 7.00021 11.4806 7.10552 11.293 7.29299L4.29303 14.293C4.10556 14.4805 4.00024 14.7348 4.00024 15C4.00024 15.2652 4.10556 15.5195 4.29303 15.707Z" fill="#353F4B"/>
</svg>
