<svg style="width:0; height:0; visibility: hidden;" xmlns="http://www.w3.org/2000/svg">

    <!-- arrow-right-->
	<symbol id="svg-arrow-right" viewBox="0 0 13 11">
		<g>
		    <path fill-rule="evenodd" clip-rule="evenodd" d="M6.73815 0.230252C6.89052 0.0828217 7.09715 0 7.3126 0C7.52805 0 7.73467 0.0828217 7.88704 0.230252L12.7621 4.94875C12.9144 5.09623 13 5.29622 13 5.50475C13 5.71328 12.9144 5.91327 12.7621 6.06074L7.88704 10.7792C7.7338 10.9225 7.52856 11.0018 7.31552 11C7.10248 10.9982 6.8987 10.9155 6.74805 10.7697C6.5974 10.6239 6.51195 10.4266 6.5101 10.2204C6.50825 10.0142 6.59015 9.81557 6.73815 9.66725L10.2263 6.29116H0.812511C0.59702 6.29116 0.390354 6.20831 0.237979 6.06083C0.0856035 5.91335 0 5.71332 0 5.50475C0 5.29618 0.0856035 5.09615 0.237979 4.94867C0.390354 4.80119 0.59702 4.71833 0.812511 4.71833H10.2263L6.73815 1.34224C6.58583 1.19477 6.50026 0.994778 6.50026 0.786248C6.50026 0.577719 6.58583 0.377727 6.73815 0.230252Z"/>
		</g>
	</symbol>

	<!-- arrow-right-long-->
	<symbol id="svg-arrow-right-long" viewBox="0 0 25 25">
		<g>
		    <path d="M20.5168 12.792C20.517 12.6602 20.488 12.53 20.4318 12.4108C20.3757 12.2916 20.2937 12.1863 20.1919 12.1026L16.7494 8.6671C16.5851 8.50298 16.3623 8.41079 16.1301 8.41079C15.8978 8.41079 15.6751 8.50298 15.5108 8.6671C15.4296 8.74827 15.3652 8.84464 15.3212 8.9507C15.2773 9.05677 15.2546 9.17045 15.2546 9.28526C15.2546 9.40007 15.2773 9.51375 15.3212 9.61981C15.3652 9.72588 15.4296 9.82225 15.5108 9.90342L17.5183 11.9156L5.03363 11.9156C4.80119 11.9156 4.57828 12.008 4.41392 12.1723C4.24956 12.3367 4.15723 12.5596 4.15723 12.792C4.15723 13.0245 4.24956 13.2474 4.41392 13.4118C4.57828 13.5761 4.80119 13.6684 5.03363 13.6684L17.53 13.6684L15.5049 15.6807C15.4235 15.7619 15.359 15.8583 15.3149 15.9645C15.2709 16.0707 15.2482 16.1845 15.2482 16.2994C15.2482 16.4144 15.2709 16.5282 15.3149 16.6344C15.359 16.7405 15.4235 16.837 15.5049 16.9182C15.5863 16.9996 15.6829 17.0642 15.7893 17.1083C15.8957 17.1524 16.0097 17.175 16.1248 17.175C16.24 17.175 16.354 17.1524 16.4603 17.1083C16.5667 17.0642 16.6633 16.9996 16.7447 16.9182L20.2597 13.4079C20.3417 13.3278 20.4068 13.2319 20.451 13.1261C20.4951 13.0203 20.5175 12.9067 20.5168 12.792V12.792Z" fill="currentColor"/>
		</g>
	</symbol>

    <!-- calendar -->

	<symbol id="svg-calendar" viewBox="0 0 27 27">
		<g>
            <path d="M7.42517 4.05005C6.53007 4.05005 5.67162 4.40563 5.03869 5.03856C4.40575 5.6715 4.05017 6.52994 4.05017 7.42505V8.10005H22.9502V7.42505C22.9502 6.52994 22.5946 5.6715 21.9617 5.03856C21.3287 4.40563 20.4703 4.05005 19.5752 4.05005H7.42517ZM22.9502 9.45005H4.05017V19.575C4.05017 20.4702 4.40575 21.3286 5.03869 21.9615C5.67162 22.5945 6.53007 22.95 7.42517 22.95H19.5752C20.4703 22.95 21.3287 22.5945 21.9617 21.9615C22.5946 21.3286 22.9502 20.4702 22.9502 19.575V9.45005ZM10.8002 13.5C10.8002 13.8581 10.6579 14.2015 10.4048 14.4546C10.1516 14.7078 9.80821 14.85 9.45017 14.85C9.09213 14.85 8.74875 14.7078 8.49558 14.4546C8.2424 14.2015 8.10017 13.8581 8.10017 13.5C8.10017 13.142 8.2424 12.7986 8.49558 12.5455C8.74875 12.2923 9.09213 12.15 9.45017 12.15C9.80821 12.15 10.1516 12.2923 10.4048 12.5455C10.6579 12.7986 10.8002 13.142 10.8002 13.5ZM9.45017 18.9C9.09213 18.9 8.74875 18.7578 8.49558 18.5046C8.2424 18.2515 8.10017 17.9081 8.10017 17.55C8.10017 17.192 8.2424 16.8486 8.49558 16.5955C8.74875 16.3423 9.09213 16.2 9.45017 16.2C9.80821 16.2 10.1516 16.3423 10.4048 16.5955C10.6579 16.8486 10.8002 17.192 10.8002 17.55C10.8002 17.9081 10.6579 18.2515 10.4048 18.5046C10.1516 18.7578 9.80821 18.9 9.45017 18.9ZM14.8502 13.5C14.8502 13.8581 14.7079 14.2015 14.4548 14.4546C14.2016 14.7078 13.8582 14.85 13.5002 14.85C13.1421 14.85 12.7988 14.7078 12.5456 14.4546C12.2924 14.2015 12.1502 13.8581 12.1502 13.5C12.1502 13.142 12.2924 12.7986 12.5456 12.5455C12.7988 12.2923 13.1421 12.15 13.5002 12.15C13.8582 12.15 14.2016 12.2923 14.4548 12.5455C14.7079 12.7986 14.8502 13.142 14.8502 13.5ZM13.5002 18.9C13.1421 18.9 12.7988 18.7578 12.5456 18.5046C12.2924 18.2515 12.1502 17.9081 12.1502 17.55C12.1502 17.192 12.2924 16.8486 12.5456 16.5955C12.7988 16.3423 13.1421 16.2 13.5002 16.2C13.8582 16.2 14.2016 16.3423 14.4548 16.5955C14.7079 16.8486 14.8502 17.192 14.8502 17.55C14.8502 17.9081 14.7079 18.2515 14.4548 18.5046C14.2016 18.7578 13.8582 18.9 13.5002 18.9ZM18.9002 13.5C18.9002 13.8581 18.7579 14.2015 18.5048 14.4546C18.2516 14.7078 17.9082 14.85 17.5502 14.85C17.1921 14.85 16.8488 14.7078 16.5956 14.4546C16.3424 14.2015 16.2002 13.8581 16.2002 13.5C16.2002 13.142 16.3424 12.7986 16.5956 12.5455C16.8488 12.2923 17.1921 12.15 17.5502 12.15C17.9082 12.15 18.2516 12.2923 18.5048 12.5455C18.7579 12.7986 18.9002 13.142 18.9002 13.5Z" fill="currentColor"/>
		</g>
	</symbol>

	
    <!-- tag -->
	<symbol id="svg-tag" viewBox="0 0 33 33">
		<g>
           <path d="M29.4144 6.95277C29.4131 6.10877 29.0785 5.29945 28.4833 4.70101C27.8882 4.10257 27.0807 3.76348 26.2368 3.75757L18.4128 3.70637C17.9896 3.70351 17.57 3.78462 17.1784 3.94501C16.7867 4.1054 16.4308 4.34189 16.1312 4.64077L5.43999 15.3032C5.14226 15.6001 4.90598 15.9529 4.74467 16.3412C4.58336 16.7296 4.50018 17.146 4.49988 17.5665C4.49958 17.987 4.58218 18.4035 4.74294 18.7921C4.9037 19.1807 5.13948 19.5337 5.43679 19.8311L13.3552 27.7511C13.9553 28.351 14.7691 28.688 15.6176 28.688C16.4661 28.688 17.2799 28.351 17.88 27.7511L28.4896 17.1399C28.7873 16.8423 29.0234 16.4888 29.1843 16.0998C29.3452 15.7107 29.4277 15.2938 29.4272 14.8728L29.4144 6.95277ZM23.0048 11.7C22.5804 11.7 22.1735 11.5314 21.8734 11.2313C21.5733 10.9313 21.4048 10.5243 21.4048 10.1C21.4048 9.67561 21.5733 9.26865 21.8734 8.96859C22.1735 8.66853 22.5804 8.49996 23.0048 8.49996C23.4291 8.49996 23.8361 8.66853 24.1361 8.96859C24.4362 9.26865 24.6048 9.67561 24.6048 10.1C24.6048 10.5243 24.4362 10.9313 24.1361 11.2313C23.8361 11.5314 23.4291 11.7 23.0048 11.7Z" fill="currentColor"/>
		</g>
	</symbol>

	<!-- share -->
	<symbol id="svg-share" viewBox="0 0 32 32">
		<g>
            <path id="Vector" d="M19.8048 9.13274V5.72475C19.8048 4.95675 20.6528 4.54395 21.2288 4.97275L21.328 5.05915L28.5232 12.1311C28.8592 12.4623 28.8896 12.9935 28.6144 13.3599L28.5232 13.4639L21.328 20.5407C20.7872 21.0719 19.9088 20.7311 19.8128 20.0063L19.8048 19.8751V16.5215L19.392 16.5583C16.512 16.8671 13.7504 18.1967 11.0928 20.5695C10.4688 21.1263 9.50564 20.6015 9.60804 19.7599C10.4048 13.2159 13.744 9.60794 19.4448 9.15674L19.8048 9.13274ZM8.80004 6.39995C7.73918 6.39995 6.72176 6.82137 5.97162 7.57152C5.22148 8.32166 4.80005 9.33908 4.80005 10.3999V23.1999C4.80005 24.2608 5.22148 25.2782 5.97162 26.0283C6.72176 26.7785 7.73918 27.1999 8.80004 27.1999H21.6C22.6609 27.1999 23.6783 26.7785 24.4284 26.0283C25.1786 25.2782 25.6 24.2608 25.6 23.1999V21.5999C25.6 21.3877 25.5157 21.1843 25.3657 21.0342C25.2157 20.8842 25.0122 20.7999 24.8 20.7999C24.5878 20.7999 24.3844 20.8842 24.2343 21.0342C24.0843 21.1843 24 21.3877 24 21.5999V23.1999C24 23.8364 23.7472 24.4469 23.2971 24.897C22.847 25.3471 22.2365 25.5999 21.6 25.5999H8.80004C8.16352 25.5999 7.55307 25.3471 7.10299 24.897C6.6529 24.4469 6.40005 23.8364 6.40005 23.1999V10.3999C6.40005 9.76342 6.6529 9.15297 7.10299 8.70289C7.55307 8.2528 8.16352 7.99994 8.80004 7.99994H13.6C13.8122 7.99994 14.0157 7.91566 14.1657 7.76563C14.3157 7.6156 14.4 7.41212 14.4 7.19995C14.4 6.98777 14.3157 6.78429 14.1657 6.63426C14.0157 6.48423 13.8122 6.39995 13.6 6.39995H8.80004Z" fill="currentColor"/>
		</g>
	</symbol>

	<!-- google -->
	<symbol id="svg-google" viewBox="0 0 33 32">
		<g>
            <path id="Vector" d="M16.2131 0.640137C7.72994 0.640137 0.853149 7.51693 0.853149 16.0001C0.853149 24.4833 7.72994 31.3601 16.2131 31.3601C24.6963 31.3601 31.5731 24.4833 31.5731 16.0001C31.5731 7.51693 24.6963 0.640137 16.2131 0.640137ZM15.3283 22.5937C14.3635 23.0625 13.3251 23.1121 12.9235 23.1121H12.7171C12.0899 23.1121 8.96834 22.9681 8.96834 20.1249C8.96834 17.3313 12.3683 17.1121 13.4099 17.1121H13.4371C12.8355 16.3089 12.9603 15.4993 12.9603 15.4993C12.8858 15.5037 12.8111 15.5058 12.7363 15.5057C12.3443 15.5057 11.5875 15.4433 10.9379 15.0241C10.1411 14.5121 9.73794 13.6401 9.73794 12.4337C9.73794 9.02413 13.4611 8.88653 13.4979 8.88333H17.2163V8.96493C17.2163 9.38093 16.4691 9.46253 15.9603 9.53133C15.7875 9.55693 15.4403 9.59053 15.3427 9.64013C16.2851 10.1441 16.4371 10.9345 16.4371 12.1121C16.4371 13.4529 15.9123 14.1617 15.3555 14.6593C15.0099 14.9681 14.7395 15.2097 14.7395 15.5345C14.7395 15.8529 15.1107 16.1777 15.5427 16.5569C16.2483 17.1793 17.2163 18.0257 17.2163 19.4545C17.2163 20.9313 16.5811 21.9873 15.3283 22.5937ZM23.4131 16.0001H21.0131V18.4001H19.4131V16.0001H17.0131V14.4001H19.4131V12.0001H21.0131V14.4001H23.4131V16.0001ZM13.3699 17.8401C13.2861 17.8402 13.2023 17.8434 13.1187 17.8497C12.4392 17.8889 11.7919 18.1528 11.2787 18.6001C10.8083 19.0257 10.5683 19.5633 10.6019 20.1057C10.6739 21.2433 11.8947 21.9089 13.3779 21.8033C14.8371 21.6977 15.8099 20.8561 15.7395 19.7185C15.6723 18.6497 14.7427 17.8401 13.3699 17.8401ZM14.7683 11.6561C14.3811 10.2961 13.7571 9.89293 12.7875 9.89293C12.6826 9.8937 12.5783 9.90822 12.4771 9.93613C12.0563 10.0561 11.7219 10.4065 11.5363 10.9281C11.3459 11.4561 11.3347 12.0065 11.4979 12.6337C11.7939 13.7553 12.5907 14.5681 13.3939 14.5681C13.499 14.5691 13.6036 14.5546 13.7043 14.5249C14.5827 14.2785 15.1331 12.9377 14.7683 11.6561Z" fill="currentColor"/>
		</g>
	</symbol>

	<!-- youtube -->
	<symbol id="svg-youtube" viewBox="0 0 33 32">
		<g>
            <path id="Vector" d="M19.3843 15.7329L15.7907 14.0561C15.4771 13.9105 15.2195 14.0737 15.2195 14.4209V17.5793C15.2195 17.9265 15.4771 18.0897 15.7907 17.9441L19.3827 16.2673C19.6979 16.1201 19.6979 15.8801 19.3843 15.7329ZM16.8195 0.640137C8.33627 0.640137 1.45947 7.51693 1.45947 16.0001C1.45947 24.4833 8.33627 31.3601 16.8195 31.3601C25.3026 31.3601 32.1794 24.4833 32.1794 16.0001C32.1794 7.51693 25.3026 0.640137 16.8195 0.640137ZM16.8195 22.2401C8.95707 22.2401 8.81947 21.5313 8.81947 16.0001C8.81947 10.4689 8.95707 9.76013 16.8195 9.76013C24.6818 9.76013 24.8194 10.4689 24.8194 16.0001C24.8194 21.5313 24.6818 22.2401 16.8195 22.2401Z" fill="currentColor"/>
		</g>
	</symbol>

	<!-- linkedin -->
	<symbol id="svg-linkedin" viewBox="0 0 33 32">
		<g>
            <path id="Vector" d="M16.4257 0.640137C7.94247 0.640137 1.06567 7.51693 1.06567 16.0001C1.06567 24.4833 7.94247 31.3601 16.4257 31.3601C24.9088 31.3601 31.7856 24.4833 31.7856 16.0001C31.7856 7.51693 24.9088 0.640137 16.4257 0.640137ZM12.6657 22.3665H9.55526V12.3569H12.6657V22.3665ZM11.0913 11.1281C10.1089 11.1281 9.47367 10.4321 9.47367 9.57133C9.47367 8.69293 10.1281 8.01773 11.1313 8.01773C12.1345 8.01773 12.7489 8.69293 12.7681 9.57133C12.7681 10.4321 12.1345 11.1281 11.0913 11.1281ZM24.0257 22.3665H20.9153V16.8193C20.9153 15.5281 20.4641 14.6513 19.3393 14.6513C18.4801 14.6513 17.9697 15.2449 17.7441 15.8161C17.6609 16.0193 17.6401 16.3073 17.6401 16.5937V22.3649H14.5281V15.5489C14.5281 14.2993 14.4881 13.2545 14.4465 12.3553H17.1489L17.2913 13.7457H17.3537C17.7633 13.0929 18.7665 12.1297 20.4449 12.1297C22.4913 12.1297 24.0257 13.5009 24.0257 16.4481V22.3665Z" fill="currentColor"/>
		</g>
	</symbol>

	<!-- twitter -->
	<symbol id="svg-twitter" viewBox="0 0 33 32">
		<g>
            <path id="Vector" d="M16.032 0.640137C7.54879 0.640137 0.671997 7.51693 0.671997 16.0001C0.671997 24.4833 7.54879 31.3601 16.032 31.3601C24.5152 31.3601 31.392 24.4833 31.392 16.0001C31.392 7.51693 24.5152 0.640137 16.032 0.640137ZM22.28 13.2225C22.2864 13.3537 22.288 13.4849 22.288 13.6129C22.288 17.6129 19.2464 22.2225 13.6816 22.2225C12.0373 22.2252 10.4271 21.753 9.04479 20.8625C9.27999 20.8913 9.52159 20.9025 9.76639 20.9025C11.184 20.9025 12.488 20.4209 13.5232 19.6081C12.8923 19.5957 12.2811 19.3868 11.7746 19.0105C11.2681 18.6343 10.8916 18.1093 10.6976 17.5089C11.1506 17.5951 11.6173 17.577 12.0624 17.4561C11.3777 17.3177 10.7619 16.9466 10.3195 16.406C9.87714 15.8653 9.63536 15.1883 9.63519 14.4897V14.4529C10.0432 14.6785 10.5104 14.8161 11.0064 14.8321C10.3645 14.4048 9.91004 13.7484 9.73606 12.9971C9.56207 12.2459 9.68167 11.4565 10.0704 10.7905C10.8303 11.7249 11.778 12.4893 12.8521 13.0342C13.9262 13.5791 15.1027 13.8924 16.3056 13.9537C16.1527 13.3046 16.2185 12.6232 16.4928 12.0153C16.7671 11.4075 17.2346 10.9073 17.8225 10.5925C18.4104 10.2778 19.0859 10.1661 19.7438 10.2748C20.4018 10.3835 21.0054 10.7066 21.4608 11.1937C22.1378 11.0598 22.7871 10.8114 23.3808 10.4593C23.1551 11.1603 22.6827 11.7556 22.0512 12.1345C22.6509 12.0623 23.2366 11.901 23.7888 11.6561C23.3832 12.264 22.8722 12.7944 22.28 13.2225Z" fill="currentColor"/>
		</g>
	</symbol>




    <!-- prev -->
	<symbol id="svg-prev" viewBox="0 0 10 19">
		<g>
            <path d="M8.34077 18.9999C8.12731 19.0006 7.9164 18.9559 7.72354 18.869C7.53068 18.7821 7.36076 18.6553 7.22628 18.4978L0.325041 10.3557C0.114887 10.1129 0 9.80834 0 9.49402C0 9.1797 0.114887 8.87513 0.325041 8.63231L7.46918 0.490225C7.71171 0.2131 8.06022 0.0388259 8.43804 0.00574221C8.81586 -0.0273414 9.19204 0.083475 9.48383 0.313813C9.77562 0.54415 9.95912 0.875142 9.99395 1.23397C10.0288 1.5928 9.91211 1.95008 9.66958 2.2272L3.28272 9.5008L9.45526 16.7744C9.62998 16.9736 9.74096 17.2161 9.77508 17.4734C9.8092 17.7306 9.76503 17.9917 9.64779 18.2258C9.53054 18.46 9.34514 18.6573 9.11351 18.7945C8.88188 18.9316 8.61372 19.0029 8.34077 18.9999Z"/>
		</g>
	</symbol>

    <!-- next -->
	<symbol id="svg-next" viewBox="0 0 10 19">
		<g>
            <path d="M1.65923 18.9999C1.87269 19.0006 2.0836 18.9559 2.27646 18.869C2.46932 18.7821 2.63924 18.6553 2.77372 18.4978L9.67496 10.3557C9.88511 10.1129 10 9.80834 10 9.49402C10 9.1797 9.88511 8.87513 9.67496 8.63231L2.53082 0.490225C2.28829 0.2131 1.93978 0.0388259 1.56196 0.00574221C1.18414 -0.0273414 0.807958 0.083475 0.516167 0.313813C0.224376 0.54415 0.0408802 0.875142 0.00604534 1.23397C-0.0287886 1.5928 0.0878916 1.95008 0.330419 2.2272L6.71728 9.5008L0.544744 16.7744C0.370022 16.9736 0.259035 17.2161 0.224916 17.4734C0.190796 17.7306 0.23497 17.9917 0.352214 18.2258C0.469458 18.46 0.654862 18.6573 0.886491 18.7945C1.11812 18.9316 1.38628 19.0029 1.65923 18.9999Z"/>
		</g>
	</symbol>

	 <!-- play -->
	<symbol id="svg-play" viewBox="0 0 40 40">
		<g>
		    <path d="M28.625 20.3123L16.1565 27.511L16.1565 13.1136L28.625 20.3123Z" fill="#FF0032"/>
		</g>
	</symbol>

	<!-- close -->
	<symbol id="svg-close" viewBox="0 0 32 32">
		<g>
            <path d="M4 28L28 4" stroke="currentcolor" stroke-width="2" stroke-linecap="round"/>
            <path d="M4 4L28 28" stroke="currentcolor" stroke-width="2" stroke-linecap="round"/>
		</g>
	</symbol>

	<!-- telegram -->
	<symbol id="svg-tg" viewBox="0 0 47 45">
		<g>
            <path d="M45 4L3 19L15 25L33 13L21 28L39 40L45 4Z" stroke="currentColor" stroke-width="2" stroke-linejoin="round"/>
		</g>
	</symbol>

	<!-- whatsapp -->
	<symbol id="svg-wa" viewBox="0 0 45 45">
		<g>
            <path d="M8.37587 31.6679C6.26441 28.1056 5.52584 23.895 6.29883 19.8267C7.07182 15.7584 9.3032 12.1122 12.5741 9.57246C15.8449 7.03276 19.9303 5.77429 24.0633 6.03331C28.1963 6.29232 32.0926 8.051 35.0208 10.9792C37.949 13.9074 39.7077 17.8037 39.9667 21.9367C40.2257 26.0697 38.9672 30.1551 36.4275 33.4259C33.8878 36.6968 30.2416 38.9282 26.1733 39.7012C22.105 40.4742 17.8944 39.7356 14.3321 37.6241V37.6241L8.44677 39.2904C8.20565 39.361 7.94999 39.3653 7.7066 39.3031C7.46322 39.2408 7.24106 39.1142 7.06341 38.9366C6.88577 38.7589 6.75918 38.5368 6.69693 38.2934C6.63467 38.05 6.63903 37.7943 6.70955 37.5532L8.37587 31.6679Z" stroke="currentColor" stroke-width="2" stroke-linecap="round" stroke-linejoin="round"/>
			<path d="M27.0917 32C25.2398 32.0046 23.4053 31.6433 21.6935 30.9367C19.9818 30.2302 18.4265 29.1924 17.117 27.883C15.8076 26.5735 14.7698 25.0182 14.0633 23.3065C13.3567 21.5947 12.9954 19.7602 13 17.9084C13.0047 16.605 13.5257 15.3566 14.449 14.4366C15.3723 13.5166 16.6226 13 17.9259 13C18.141 12.9983 18.3525 13.0546 18.5383 13.163C18.724 13.2713 18.8771 13.4277 18.9815 13.6158L21.0398 17.2046C21.1622 17.4228 21.225 17.6694 21.222 17.9195C21.2189 18.1696 21.15 18.4146 21.0222 18.6296L19.3685 21.3917C20.2156 23.276 21.724 24.7844 23.6083 25.6315L26.3704 23.9778C26.5854 23.85 26.8304 23.7811 27.0805 23.778C27.3306 23.775 27.5772 23.8378 27.7954 23.9602L31.3842 26.0185C31.5723 26.1229 31.7287 26.276 31.837 26.4617C31.9454 26.6475 32.0017 26.859 32 27.0741C31.9954 28.376 31.4773 29.6236 30.5583 30.5459C29.6393 31.4682 28.3936 31.9907 27.0917 32Z" stroke="currentColor" stroke-width="2" stroke-linecap="round" stroke-linejoin="round"/>
		</g>
	</symbol>

	<!-- tel -->
	<symbol id="svg-tel" viewBox="0 0 24 24">
		<g>
            <path d="M16.4713 13.5535L16.4588 13.5483L16.446 13.5438L16.4395 13.5415C16.2624 13.479 15.9934 13.3842 15.7128 13.4158C15.3746 13.4538 15.1208 13.6526 14.9239 13.9343L14.9238 13.9343L14.9185 13.9422C14.6503 14.3418 13.8751 15.2794 13.6374 15.5547L13.6325 15.5603L13.6278 15.5661C13.5956 15.6057 13.5747 15.6226 13.566 15.6287C13.5481 15.6276 13.4816 15.6182 13.3366 15.5418L13.3294 15.5381L13.3222 15.5345C13.2532 15.501 13.1657 15.4627 13.0616 15.4173C12.4768 15.1617 11.3686 14.6774 10.0769 13.5078L10.0765 13.5074C8.89282 12.4376 8.09902 11.1163 7.84421 10.6861C7.81094 10.6247 7.80507 10.5926 7.80403 10.5845C7.80403 10.5845 7.80402 10.5844 7.80402 10.5844C7.80666 10.5787 7.8143 10.5644 7.8339 10.5394C7.86058 10.5054 7.896 10.468 7.95145 10.4118C8.09497 10.2664 8.27368 10.0476 8.42787 9.85885C8.49167 9.78076 8.55127 9.7078 8.60245 9.64731C8.82925 9.37918 8.94077 9.15137 9.05682 8.91432C9.06829 8.89089 9.0798 8.86737 9.09147 8.84372L9.0916 8.84378L9.09657 8.83307C9.32128 8.34921 9.19322 7.93973 9.05768 7.66505C9.05769 7.66507 9.05761 7.66491 9.05743 7.66454C9.0572 7.66405 9.0568 7.66323 9.05623 7.662L9.05224 7.6534L9.03923 7.62439C9.02858 7.60029 9.01506 7.56905 8.99879 7.53089C8.96627 7.45466 8.92436 7.35462 8.87527 7.23626C8.77719 6.99975 8.65203 6.69389 8.51919 6.36697C8.25344 5.71299 7.95844 4.97849 7.79032 4.55258L7.79036 4.55257L7.78767 4.54602C7.59618 4.08033 7.35831 3.77209 7.03938 3.6168C6.77853 3.48979 6.46551 3.49954 6.41865 3.501C6.41529 3.50111 6.4133 3.50117 6.4128 3.50114L6.39596 3.5H6.3791H5.56811C5.16239 3.5 4.58032 3.64668 4.08282 4.19463L4.08273 4.19455L4.0755 4.20288C4.04787 4.23469 4.0155 4.27063 3.97926 4.31087C3.53308 4.80629 2.5 5.95336 2.5 8.07462C2.5 9.23014 2.91299 10.3384 3.33022 11.1706C3.74505 11.9981 4.18533 12.5938 4.29986 12.7485C4.30812 12.7605 4.32007 12.7783 4.33564 12.8014C4.73353 13.3924 7.50079 17.5024 11.6512 19.3177C12.6699 19.7725 13.4659 20.0357 14.084 20.2271C15.1828 20.5849 16.1805 20.5245 16.9412 20.4169L16.9443 20.4165C17.4456 20.3424 18.1351 20.0471 18.7323 19.6581C19.3168 19.2773 19.9388 18.7257 20.1648 18.0665C20.3558 17.531 20.4536 17.0316 20.4867 16.631C20.5033 16.4309 20.5044 16.2474 20.49 16.0912C20.4779 15.9591 20.4491 15.7691 20.3527 15.6155C20.2238 15.4103 20.0379 15.2913 19.8836 15.2081C19.794 15.1598 19.6759 15.1044 19.5556 15.0481C19.4874 15.0162 19.4185 14.9839 19.3539 14.9525C19.2595 14.9065 19.0708 14.8134 18.8325 14.6957C18.061 14.3148 16.7692 13.677 16.4713 13.5535Z" stroke="#185CFF"/>
		</g>
	</symbol>
</svg>