<svg style="width:0; height:0; visibility: hidden;" xmlns="http://www.w3.org/2000/svg">

    <!-- arrow-right-->
	<symbol id="svg-arrow-right" viewBox="0 0 13 11">
		<g>
		    <path fill-rule="evenodd" clip-rule="evenodd" d="M6.73815 0.230252C6.89052 0.0828217 7.09715 0 7.3126 0C7.52805 0 7.73467 0.0828217 7.88704 0.230252L12.7621 4.94875C12.9144 5.09623 13 5.29622 13 5.50475C13 5.71328 12.9144 5.91327 12.7621 6.06074L7.88704 10.7792C7.7338 10.9225 7.52856 11.0018 7.31552 11C7.10248 10.9982 6.8987 10.9155 6.74805 10.7697C6.5974 10.6239 6.51195 10.4266 6.5101 10.2204C6.50825 10.0142 6.59015 9.81557 6.73815 9.66725L10.2263 6.29116H0.812511C0.59702 6.29116 0.390354 6.20831 0.237979 6.06083C0.0856035 5.91335 0 5.71332 0 5.50475C0 5.29618 0.0856035 5.09615 0.237979 4.94867C0.390354 4.80119 0.59702 4.71833 0.812511 4.71833H10.2263L6.73815 1.34224C6.58583 1.19477 6.50026 0.994778 6.50026 0.786248C6.50026 0.577719 6.58583 0.377727 6.73815 0.230252Z"/>
		</g>
	</symbol>

	<!-- arrow-right-long-->
	<symbol id="svg-arrow-right-long" viewBox="0 0 25 25">
		<g>
		    <path d="M20.5168 12.792C20.517 12.6602 20.488 12.53 20.4318 12.4108C20.3757 12.2916 20.2937 12.1863 20.1919 12.1026L16.7494 8.6671C16.5851 8.50298 16.3623 8.41079 16.1301 8.41079C15.8978 8.41079 15.6751 8.50298 15.5108 8.6671C15.4296 8.74827 15.3652 8.84464 15.3212 8.9507C15.2773 9.05677 15.2546 9.17045 15.2546 9.28526C15.2546 9.40007 15.2773 9.51375 15.3212 9.61981C15.3652 9.72588 15.4296 9.82225 15.5108 9.90342L17.5183 11.9156L5.03363 11.9156C4.80119 11.9156 4.57828 12.008 4.41392 12.1723C4.24956 12.3367 4.15723 12.5596 4.15723 12.792C4.15723 13.0245 4.24956 13.2474 4.41392 13.4118C4.57828 13.5761 4.80119 13.6684 5.03363 13.6684L17.53 13.6684L15.5049 15.6807C15.4235 15.7619 15.359 15.8583 15.3149 15.9645C15.2709 16.0707 15.2482 16.1845 15.2482 16.2994C15.2482 16.4144 15.2709 16.5282 15.3149 16.6344C15.359 16.7405 15.4235 16.837 15.5049 16.9182C15.5863 16.9996 15.6829 17.0642 15.7893 17.1083C15.8957 17.1524 16.0097 17.175 16.1248 17.175C16.24 17.175 16.354 17.1524 16.4603 17.1083C16.5667 17.0642 16.6633 16.9996 16.7447 16.9182L20.2597 13.4079C20.3417 13.3278 20.4068 13.2319 20.451 13.1261C20.4951 13.0203 20.5175 12.9067 20.5168 12.792V12.792Z" fill="currentColor"/>
		</g>
	</symbol>

    <!-- calendar -->

	<symbol id="svg-calendar" viewBox="0 0 27 27">
		<g>
            <path d="M7.42517 4.05005C6.53007 4.05005 5.67162 4.40563 5.03869 5.03856C4.40575 5.6715 4.05017 6.52994 4.05017 7.42505V8.10005H22.9502V7.42505C22.9502 6.52994 22.5946 5.6715 21.9617 5.03856C21.3287 4.40563 20.4703 4.05005 19.5752 4.05005H7.42517ZM22.9502 9.45005H4.05017V19.575C4.05017 20.4702 4.40575 21.3286 5.03869 21.9615C5.67162 22.5945 6.53007 22.95 7.42517 22.95H19.5752C20.4703 22.95 21.3287 22.5945 21.9617 21.9615C22.5946 21.3286 22.9502 20.4702 22.9502 19.575V9.45005ZM10.8002 13.5C10.8002 13.8581 10.6579 14.2015 10.4048 14.4546C10.1516 14.7078 9.80821 14.85 9.45017 14.85C9.09213 14.85 8.74875 14.7078 8.49558 14.4546C8.2424 14.2015 8.10017 13.8581 8.10017 13.5C8.10017 13.142 8.2424 12.7986 8.49558 12.5455C8.74875 12.2923 9.09213 12.15 9.45017 12.15C9.80821 12.15 10.1516 12.2923 10.4048 12.5455C10.6579 12.7986 10.8002 13.142 10.8002 13.5ZM9.45017 18.9C9.09213 18.9 8.74875 18.7578 8.49558 18.5046C8.2424 18.2515 8.10017 17.9081 8.10017 17.55C8.10017 17.192 8.2424 16.8486 8.49558 16.5955C8.74875 16.3423 9.09213 16.2 9.45017 16.2C9.80821 16.2 10.1516 16.3423 10.4048 16.5955C10.6579 16.8486 10.8002 17.192 10.8002 17.55C10.8002 17.9081 10.6579 18.2515 10.4048 18.5046C10.1516 18.7578 9.80821 18.9 9.45017 18.9ZM14.8502 13.5C14.8502 13.8581 14.7079 14.2015 14.4548 14.4546C14.2016 14.7078 13.8582 14.85 13.5002 14.85C13.1421 14.85 12.7988 14.7078 12.5456 14.4546C12.2924 14.2015 12.1502 13.8581 12.1502 13.5C12.1502 13.142 12.2924 12.7986 12.5456 12.5455C12.7988 12.2923 13.1421 12.15 13.5002 12.15C13.8582 12.15 14.2016 12.2923 14.4548 12.5455C14.7079 12.7986 14.8502 13.142 14.8502 13.5ZM13.5002 18.9C13.1421 18.9 12.7988 18.7578 12.5456 18.5046C12.2924 18.2515 12.1502 17.9081 12.1502 17.55C12.1502 17.192 12.2924 16.8486 12.5456 16.5955C12.7988 16.3423 13.1421 16.2 13.5002 16.2C13.8582 16.2 14.2016 16.3423 14.4548 16.5955C14.7079 16.8486 14.8502 17.192 14.8502 17.55C14.8502 17.9081 14.7079 18.2515 14.4548 18.5046C14.2016 18.7578 13.8582 18.9 13.5002 18.9ZM18.9002 13.5C18.9002 13.8581 18.7579 14.2015 18.5048 14.4546C18.2516 14.7078 17.9082 14.85 17.5502 14.85C17.1921 14.85 16.8488 14.7078 16.5956 14.4546C16.3424 14.2015 16.2002 13.8581 16.2002 13.5C16.2002 13.142 16.3424 12.7986 16.5956 12.5455C16.8488 12.2923 17.1921 12.15 17.5502 12.15C17.9082 12.15 18.2516 12.2923 18.5048 12.5455C18.7579 12.7986 18.9002 13.142 18.9002 13.5Z" fill="currentColor"/>
		</g>
	</symbol>

	
    <!-- tag -->
	<symbol id="svg-tag" viewBox="0 0 33 33">
		<g>
           <path d="M29.4144 6.95277C29.4131 6.10877 29.0785 5.29945 28.4833 4.70101C27.8882 4.10257 27.0807 3.76348 26.2368 3.75757L18.4128 3.70637C17.9896 3.70351 17.57 3.78462 17.1784 3.94501C16.7867 4.1054 16.4308 4.34189 16.1312 4.64077L5.43999 15.3032C5.14226 15.6001 4.90598 15.9529 4.74467 16.3412C4.58336 16.7296 4.50018 17.146 4.49988 17.5665C4.49958 17.987 4.58218 18.4035 4.74294 18.7921C4.9037 19.1807 5.13948 19.5337 5.43679 19.8311L13.3552 27.7511C13.9553 28.351 14.7691 28.688 15.6176 28.688C16.4661 28.688 17.2799 28.351 17.88 27.7511L28.4896 17.1399C28.7873 16.8423 29.0234 16.4888 29.1843 16.0998C29.3452 15.7107 29.4277 15.2938 29.4272 14.8728L29.4144 6.95277ZM23.0048 11.7C22.5804 11.7 22.1735 11.5314 21.8734 11.2313C21.5733 10.9313 21.4048 10.5243 21.4048 10.1C21.4048 9.67561 21.5733 9.26865 21.8734 8.96859C22.1735 8.66853 22.5804 8.49996 23.0048 8.49996C23.4291 8.49996 23.8361 8.66853 24.1361 8.96859C24.4362 9.26865 24.6048 9.67561 24.6048 10.1C24.6048 10.5243 24.4362 10.9313 24.1361 11.2313C23.8361 11.5314 23.4291 11.7 23.0048 11.7Z" fill="currentColor"/>
		</g>
	</symbol>


    <!-- prev -->
	<symbol id="svg-prev" viewBox="0 0 10 19">
		<g>
            <path d="M8.34077 18.9999C8.12731 19.0006 7.9164 18.9559 7.72354 18.869C7.53068 18.7821 7.36076 18.6553 7.22628 18.4978L0.325041 10.3557C0.114887 10.1129 0 9.80834 0 9.49402C0 9.1797 0.114887 8.87513 0.325041 8.63231L7.46918 0.490225C7.71171 0.2131 8.06022 0.0388259 8.43804 0.00574221C8.81586 -0.0273414 9.19204 0.083475 9.48383 0.313813C9.77562 0.54415 9.95912 0.875142 9.99395 1.23397C10.0288 1.5928 9.91211 1.95008 9.66958 2.2272L3.28272 9.5008L9.45526 16.7744C9.62998 16.9736 9.74096 17.2161 9.77508 17.4734C9.8092 17.7306 9.76503 17.9917 9.64779 18.2258C9.53054 18.46 9.34514 18.6573 9.11351 18.7945C8.88188 18.9316 8.61372 19.0029 8.34077 18.9999Z"/>
		</g>
	</symbol>

    <!-- next -->
	<symbol id="svg-next" viewBox="0 0 10 19">
		<g>
            <path d="M1.65923 18.9999C1.87269 19.0006 2.0836 18.9559 2.27646 18.869C2.46932 18.7821 2.63924 18.6553 2.77372 18.4978L9.67496 10.3557C9.88511 10.1129 10 9.80834 10 9.49402C10 9.1797 9.88511 8.87513 9.67496 8.63231L2.53082 0.490225C2.28829 0.2131 1.93978 0.0388259 1.56196 0.00574221C1.18414 -0.0273414 0.807958 0.083475 0.516167 0.313813C0.224376 0.54415 0.0408802 0.875142 0.00604534 1.23397C-0.0287886 1.5928 0.0878916 1.95008 0.330419 2.2272L6.71728 9.5008L0.544744 16.7744C0.370022 16.9736 0.259035 17.2161 0.224916 17.4734C0.190796 17.7306 0.23497 17.9917 0.352214 18.2258C0.469458 18.46 0.654862 18.6573 0.886491 18.7945C1.11812 18.9316 1.38628 19.0029 1.65923 18.9999Z"/>
		</g>
	</symbol>

	 <!-- play -->
	<symbol id="svg-play" viewBox="0 0 40 40">
		<g>
		    <path d="M28.625 20.3123L16.1565 27.511L16.1565 13.1136L28.625 20.3123Z" fill="#FF0032"/>
		</g>
	</symbol>

	<!-- close -->
	<symbol id="svg-close" viewBox="0 0 32 32">
		<g>
            <path d="M4 28L28 4" stroke="currentcolor" stroke-width="2" stroke-linecap="round"/>
            <path d="M4 4L28 28" stroke="currentcolor" stroke-width="2" stroke-linecap="round"/>
		</g>
	</symbol>

	<!-- telegram -->
	<symbol id="svg-tg" viewBox="0 0 47 45">
		<g>
            <path d="M45 4L3 19L15 25L33 13L21 28L39 40L45 4Z" stroke="currentColor" stroke-width="2" stroke-linejoin="round"/>
		</g>
	</symbol>

	<!-- whatsapp -->
	<symbol id="svg-wa" viewBox="0 0 45 45">
		<g>
            <path d="M8.37587 31.6679C6.26441 28.1056 5.52584 23.895 6.29883 19.8267C7.07182 15.7584 9.3032 12.1122 12.5741 9.57246C15.8449 7.03276 19.9303 5.77429 24.0633 6.03331C28.1963 6.29232 32.0926 8.051 35.0208 10.9792C37.949 13.9074 39.7077 17.8037 39.9667 21.9367C40.2257 26.0697 38.9672 30.1551 36.4275 33.4259C33.8878 36.6968 30.2416 38.9282 26.1733 39.7012C22.105 40.4742 17.8944 39.7356 14.3321 37.6241V37.6241L8.44677 39.2904C8.20565 39.361 7.94999 39.3653 7.7066 39.3031C7.46322 39.2408 7.24106 39.1142 7.06341 38.9366C6.88577 38.7589 6.75918 38.5368 6.69693 38.2934C6.63467 38.05 6.63903 37.7943 6.70955 37.5532L8.37587 31.6679Z" stroke="currentColor" stroke-width="2" stroke-linecap="round" stroke-linejoin="round"/>
			<path d="M27.0917 32C25.2398 32.0046 23.4053 31.6433 21.6935 30.9367C19.9818 30.2302 18.4265 29.1924 17.117 27.883C15.8076 26.5735 14.7698 25.0182 14.0633 23.3065C13.3567 21.5947 12.9954 19.7602 13 17.9084C13.0047 16.605 13.5257 15.3566 14.449 14.4366C15.3723 13.5166 16.6226 13 17.9259 13C18.141 12.9983 18.3525 13.0546 18.5383 13.163C18.724 13.2713 18.8771 13.4277 18.9815 13.6158L21.0398 17.2046C21.1622 17.4228 21.225 17.6694 21.222 17.9195C21.2189 18.1696 21.15 18.4146 21.0222 18.6296L19.3685 21.3917C20.2156 23.276 21.724 24.7844 23.6083 25.6315L26.3704 23.9778C26.5854 23.85 26.8304 23.7811 27.0805 23.778C27.3306 23.775 27.5772 23.8378 27.7954 23.9602L31.3842 26.0185C31.5723 26.1229 31.7287 26.276 31.837 26.4617C31.9454 26.6475 32.0017 26.859 32 27.0741C31.9954 28.376 31.4773 29.6236 30.5583 30.5459C29.6393 31.4682 28.3936 31.9907 27.0917 32Z" stroke="currentColor" stroke-width="2" stroke-linecap="round" stroke-linejoin="round"/>
		</g>
	</symbol>

	<!-- tel -->
	<symbol id="svg-tel" viewBox="0 0 24 24">
		<g>
            <path d="M16.4713 13.5535L16.4588 13.5483L16.446 13.5438L16.4395 13.5415C16.2624 13.479 15.9934 13.3842 15.7128 13.4158C15.3746 13.4538 15.1208 13.6526 14.9239 13.9343L14.9238 13.9343L14.9185 13.9422C14.6503 14.3418 13.8751 15.2794 13.6374 15.5547L13.6325 15.5603L13.6278 15.5661C13.5956 15.6057 13.5747 15.6226 13.566 15.6287C13.5481 15.6276 13.4816 15.6182 13.3366 15.5418L13.3294 15.5381L13.3222 15.5345C13.2532 15.501 13.1657 15.4627 13.0616 15.4173C12.4768 15.1617 11.3686 14.6774 10.0769 13.5078L10.0765 13.5074C8.89282 12.4376 8.09902 11.1163 7.84421 10.6861C7.81094 10.6247 7.80507 10.5926 7.80403 10.5845C7.80403 10.5845 7.80402 10.5844 7.80402 10.5844C7.80666 10.5787 7.8143 10.5644 7.8339 10.5394C7.86058 10.5054 7.896 10.468 7.95145 10.4118C8.09497 10.2664 8.27368 10.0476 8.42787 9.85885C8.49167 9.78076 8.55127 9.7078 8.60245 9.64731C8.82925 9.37918 8.94077 9.15137 9.05682 8.91432C9.06829 8.89089 9.0798 8.86737 9.09147 8.84372L9.0916 8.84378L9.09657 8.83307C9.32128 8.34921 9.19322 7.93973 9.05768 7.66505C9.05769 7.66507 9.05761 7.66491 9.05743 7.66454C9.0572 7.66405 9.0568 7.66323 9.05623 7.662L9.05224 7.6534L9.03923 7.62439C9.02858 7.60029 9.01506 7.56905 8.99879 7.53089C8.96627 7.45466 8.92436 7.35462 8.87527 7.23626C8.77719 6.99975 8.65203 6.69389 8.51919 6.36697C8.25344 5.71299 7.95844 4.97849 7.79032 4.55258L7.79036 4.55257L7.78767 4.54602C7.59618 4.08033 7.35831 3.77209 7.03938 3.6168C6.77853 3.48979 6.46551 3.49954 6.41865 3.501C6.41529 3.50111 6.4133 3.50117 6.4128 3.50114L6.39596 3.5H6.3791H5.56811C5.16239 3.5 4.58032 3.64668 4.08282 4.19463L4.08273 4.19455L4.0755 4.20288C4.04787 4.23469 4.0155 4.27063 3.97926 4.31087C3.53308 4.80629 2.5 5.95336 2.5 8.07462C2.5 9.23014 2.91299 10.3384 3.33022 11.1706C3.74505 11.9981 4.18533 12.5938 4.29986 12.7485C4.30812 12.7605 4.32007 12.7783 4.33564 12.8014C4.73353 13.3924 7.50079 17.5024 11.6512 19.3177C12.6699 19.7725 13.4659 20.0357 14.084 20.2271C15.1828 20.5849 16.1805 20.5245 16.9412 20.4169L16.9443 20.4165C17.4456 20.3424 18.1351 20.0471 18.7323 19.6581C19.3168 19.2773 19.9388 18.7257 20.1648 18.0665C20.3558 17.531 20.4536 17.0316 20.4867 16.631C20.5033 16.4309 20.5044 16.2474 20.49 16.0912C20.4779 15.9591 20.4491 15.7691 20.3527 15.6155C20.2238 15.4103 20.0379 15.2913 19.8836 15.2081C19.794 15.1598 19.6759 15.1044 19.5556 15.0481C19.4874 15.0162 19.4185 14.9839 19.3539 14.9525C19.2595 14.9065 19.0708 14.8134 18.8325 14.6957C18.061 14.3148 16.7692 13.677 16.4713 13.5535Z" stroke="#185CFF"/>
		</g>
	</symbol>
</svg>