<svg style="width:0; height:0; visibility: hidden;" xmlns="http://www.w3.org/2000/svg">

    <!-- arrow-right-->
	<symbol id="svg-arrow-right" viewBox="0 0 13 11">
		<g>
		    <path fill-rule="evenodd" clip-rule="evenodd" d="M6.73815 0.230252C6.89052 0.0828217 7.09715 0 7.3126 0C7.52805 0 7.73467 0.0828217 7.88704 0.230252L12.7621 4.94875C12.9144 5.09623 13 5.29622 13 5.50475C13 5.71328 12.9144 5.91327 12.7621 6.06074L7.88704 10.7792C7.7338 10.9225 7.52856 11.0018 7.31552 11C7.10248 10.9982 6.8987 10.9155 6.74805 10.7697C6.5974 10.6239 6.51195 10.4266 6.5101 10.2204C6.50825 10.0142 6.59015 9.81557 6.73815 9.66725L10.2263 6.29116H0.812511C0.59702 6.29116 0.390354 6.20831 0.237979 6.06083C0.0856035 5.91335 0 5.71332 0 5.50475C0 5.29618 0.0856035 5.09615 0.237979 4.94867C0.390354 4.80119 0.59702 4.71833 0.812511 4.71833H10.2263L6.73815 1.34224C6.58583 1.19477 6.50026 0.994778 6.50026 0.786248C6.50026 0.577719 6.58583 0.377727 6.73815 0.230252Z"/>
		</g>
	</symbol>

    <!-- prev -->
	<symbol id="svg-prev" viewBox="0 0 10 19">
		<g>
            <path d="M8.34077 18.9999C8.12731 19.0006 7.9164 18.9559 7.72354 18.869C7.53068 18.7821 7.36076 18.6553 7.22628 18.4978L0.325041 10.3557C0.114887 10.1129 0 9.80834 0 9.49402C0 9.1797 0.114887 8.87513 0.325041 8.63231L7.46918 0.490225C7.71171 0.2131 8.06022 0.0388259 8.43804 0.00574221C8.81586 -0.0273414 9.19204 0.083475 9.48383 0.313813C9.77562 0.54415 9.95912 0.875142 9.99395 1.23397C10.0288 1.5928 9.91211 1.95008 9.66958 2.2272L3.28272 9.5008L9.45526 16.7744C9.62998 16.9736 9.74096 17.2161 9.77508 17.4734C9.8092 17.7306 9.76503 17.9917 9.64779 18.2258C9.53054 18.46 9.34514 18.6573 9.11351 18.7945C8.88188 18.9316 8.61372 19.0029 8.34077 18.9999Z"/>
		</g>
	</symbol>

    <!-- next -->
	<symbol id="svg-next" viewBox="0 0 10 19">
		<g>
            <path d="M1.65923 18.9999C1.87269 19.0006 2.0836 18.9559 2.27646 18.869C2.46932 18.7821 2.63924 18.6553 2.77372 18.4978L9.67496 10.3557C9.88511 10.1129 10 9.80834 10 9.49402C10 9.1797 9.88511 8.87513 9.67496 8.63231L2.53082 0.490225C2.28829 0.2131 1.93978 0.0388259 1.56196 0.00574221C1.18414 -0.0273414 0.807958 0.083475 0.516167 0.313813C0.224376 0.54415 0.0408802 0.875142 0.00604534 1.23397C-0.0287886 1.5928 0.0878916 1.95008 0.330419 2.2272L6.71728 9.5008L0.544744 16.7744C0.370022 16.9736 0.259035 17.2161 0.224916 17.4734C0.190796 17.7306 0.23497 17.9917 0.352214 18.2258C0.469458 18.46 0.654862 18.6573 0.886491 18.7945C1.11812 18.9316 1.38628 19.0029 1.65923 18.9999Z"/>
		</g>
	</symbol>

	 <!-- play -->
	<symbol id="svg-play" viewBox="0 0 40 40">
		<g>
		    <path d="M28.625 20.3123L16.1565 27.511L16.1565 13.1136L28.625 20.3123Z" fill="#FF0032"/>
		</g>
	</symbol>

	<!-- telegram -->
	<symbol id="svg-tg" viewBox="0 0 47 45">
		<g>
            <path d="M45 4L3 19L15 25L33 13L21 28L39 40L45 4Z" stroke="currentColor" stroke-width="2" stroke-linejoin="round"/>
		</g>
	</symbol>

	<!-- whatsapp -->
	<symbol id="svg-wa" viewBox="0 0 45 45">
		<g>
            <path d="M8.37587 31.6679C6.26441 28.1056 5.52584 23.895 6.29883 19.8267C7.07182 15.7584 9.3032 12.1122 12.5741 9.57246C15.8449 7.03276 19.9303 5.77429 24.0633 6.03331C28.1963 6.29232 32.0926 8.051 35.0208 10.9792C37.949 13.9074 39.7077 17.8037 39.9667 21.9367C40.2257 26.0697 38.9672 30.1551 36.4275 33.4259C33.8878 36.6968 30.2416 38.9282 26.1733 39.7012C22.105 40.4742 17.8944 39.7356 14.3321 37.6241V37.6241L8.44677 39.2904C8.20565 39.361 7.94999 39.3653 7.7066 39.3031C7.46322 39.2408 7.24106 39.1142 7.06341 38.9366C6.88577 38.7589 6.75918 38.5368 6.69693 38.2934C6.63467 38.05 6.63903 37.7943 6.70955 37.5532L8.37587 31.6679Z" stroke="currentColor" stroke-width="2" stroke-linecap="round" stroke-linejoin="round"/>
			<path d="M27.0917 32C25.2398 32.0046 23.4053 31.6433 21.6935 30.9367C19.9818 30.2302 18.4265 29.1924 17.117 27.883C15.8076 26.5735 14.7698 25.0182 14.0633 23.3065C13.3567 21.5947 12.9954 19.7602 13 17.9084C13.0047 16.605 13.5257 15.3566 14.449 14.4366C15.3723 13.5166 16.6226 13 17.9259 13C18.141 12.9983 18.3525 13.0546 18.5383 13.163C18.724 13.2713 18.8771 13.4277 18.9815 13.6158L21.0398 17.2046C21.1622 17.4228 21.225 17.6694 21.222 17.9195C21.2189 18.1696 21.15 18.4146 21.0222 18.6296L19.3685 21.3917C20.2156 23.276 21.724 24.7844 23.6083 25.6315L26.3704 23.9778C26.5854 23.85 26.8304 23.7811 27.0805 23.778C27.3306 23.775 27.5772 23.8378 27.7954 23.9602L31.3842 26.0185C31.5723 26.1229 31.7287 26.276 31.837 26.4617C31.9454 26.6475 32.0017 26.859 32 27.0741C31.9954 28.376 31.4773 29.6236 30.5583 30.5459C29.6393 31.4682 28.3936 31.9907 27.0917 32Z" stroke="currentColor" stroke-width="2" stroke-linecap="round" stroke-linejoin="round"/>
		</g>
	</symbol>

	<!-- tel -->
	<symbol id="svg-tel" viewBox="0 0 24 24">
		<g>
            <path d="M16.4713 13.5535L16.4588 13.5483L16.446 13.5438L16.4395 13.5415C16.2624 13.479 15.9934 13.3842 15.7128 13.4158C15.3746 13.4538 15.1208 13.6526 14.9239 13.9343L14.9238 13.9343L14.9185 13.9422C14.6503 14.3418 13.8751 15.2794 13.6374 15.5547L13.6325 15.5603L13.6278 15.5661C13.5956 15.6057 13.5747 15.6226 13.566 15.6287C13.5481 15.6276 13.4816 15.6182 13.3366 15.5418L13.3294 15.5381L13.3222 15.5345C13.2532 15.501 13.1657 15.4627 13.0616 15.4173C12.4768 15.1617 11.3686 14.6774 10.0769 13.5078L10.0765 13.5074C8.89282 12.4376 8.09902 11.1163 7.84421 10.6861C7.81094 10.6247 7.80507 10.5926 7.80403 10.5845C7.80403 10.5845 7.80402 10.5844 7.80402 10.5844C7.80666 10.5787 7.8143 10.5644 7.8339 10.5394C7.86058 10.5054 7.896 10.468 7.95145 10.4118C8.09497 10.2664 8.27368 10.0476 8.42787 9.85885C8.49167 9.78076 8.55127 9.7078 8.60245 9.64731C8.82925 9.37918 8.94077 9.15137 9.05682 8.91432C9.06829 8.89089 9.0798 8.86737 9.09147 8.84372L9.0916 8.84378L9.09657 8.83307C9.32128 8.34921 9.19322 7.93973 9.05768 7.66505C9.05769 7.66507 9.05761 7.66491 9.05743 7.66454C9.0572 7.66405 9.0568 7.66323 9.05623 7.662L9.05224 7.6534L9.03923 7.62439C9.02858 7.60029 9.01506 7.56905 8.99879 7.53089C8.96627 7.45466 8.92436 7.35462 8.87527 7.23626C8.77719 6.99975 8.65203 6.69389 8.51919 6.36697C8.25344 5.71299 7.95844 4.97849 7.79032 4.55258L7.79036 4.55257L7.78767 4.54602C7.59618 4.08033 7.35831 3.77209 7.03938 3.6168C6.77853 3.48979 6.46551 3.49954 6.41865 3.501C6.41529 3.50111 6.4133 3.50117 6.4128 3.50114L6.39596 3.5H6.3791H5.56811C5.16239 3.5 4.58032 3.64668 4.08282 4.19463L4.08273 4.19455L4.0755 4.20288C4.04787 4.23469 4.0155 4.27063 3.97926 4.31087C3.53308 4.80629 2.5 5.95336 2.5 8.07462C2.5 9.23014 2.91299 10.3384 3.33022 11.1706C3.74505 11.9981 4.18533 12.5938 4.29986 12.7485C4.30812 12.7605 4.32007 12.7783 4.33564 12.8014C4.73353 13.3924 7.50079 17.5024 11.6512 19.3177C12.6699 19.7725 13.4659 20.0357 14.084 20.2271C15.1828 20.5849 16.1805 20.5245 16.9412 20.4169L16.9443 20.4165C17.4456 20.3424 18.1351 20.0471 18.7323 19.6581C19.3168 19.2773 19.9388 18.7257 20.1648 18.0665C20.3558 17.531 20.4536 17.0316 20.4867 16.631C20.5033 16.4309 20.5044 16.2474 20.49 16.0912C20.4779 15.9591 20.4491 15.7691 20.3527 15.6155C20.2238 15.4103 20.0379 15.2913 19.8836 15.2081C19.794 15.1598 19.6759 15.1044 19.5556 15.0481C19.4874 15.0162 19.4185 14.9839 19.3539 14.9525C19.2595 14.9065 19.0708 14.8134 18.8325 14.6957C18.061 14.3148 16.7692 13.677 16.4713 13.5535Z" stroke="#185CFF"/>
		</g>
	</symbol>
</svg>