<svg style="width:0; height:0; visibility: hidden;" xmlns="http://www.w3.org/2000/svg">

    <!-- arrow-right-->
	<symbol id="svg-arrow-right" viewBox="0 0 13 11">
		<g>
		    <path fill-rule="evenodd" clip-rule="evenodd" d="M6.73815 0.230252C6.89052 0.0828217 7.09715 0 7.3126 0C7.52805 0 7.73467 0.0828217 7.88704 0.230252L12.7621 4.94875C12.9144 5.09623 13 5.29622 13 5.50475C13 5.71328 12.9144 5.91327 12.7621 6.06074L7.88704 10.7792C7.7338 10.9225 7.52856 11.0018 7.31552 11C7.10248 10.9982 6.8987 10.9155 6.74805 10.7697C6.5974 10.6239 6.51195 10.4266 6.5101 10.2204C6.50825 10.0142 6.59015 9.81557 6.73815 9.66725L10.2263 6.29116H0.812511C0.59702 6.29116 0.390354 6.20831 0.237979 6.06083C0.0856035 5.91335 0 5.71332 0 5.50475C0 5.29618 0.0856035 5.09615 0.237979 4.94867C0.390354 4.80119 0.59702 4.71833 0.812511 4.71833H10.2263L6.73815 1.34224C6.58583 1.19477 6.50026 0.994778 6.50026 0.786248C6.50026 0.577719 6.58583 0.377727 6.73815 0.230252Z"/>
		</g>
	</symbol>

    <!-- prev -->
	<symbol id="svg-prev" viewBox="0 0 10 19">
		<g>
            <path d="M8.34077 18.9999C8.12731 19.0006 7.9164 18.9559 7.72354 18.869C7.53068 18.7821 7.36076 18.6553 7.22628 18.4978L0.325041 10.3557C0.114887 10.1129 0 9.80834 0 9.49402C0 9.1797 0.114887 8.87513 0.325041 8.63231L7.46918 0.490225C7.71171 0.2131 8.06022 0.0388259 8.43804 0.00574221C8.81586 -0.0273414 9.19204 0.083475 9.48383 0.313813C9.77562 0.54415 9.95912 0.875142 9.99395 1.23397C10.0288 1.5928 9.91211 1.95008 9.66958 2.2272L3.28272 9.5008L9.45526 16.7744C9.62998 16.9736 9.74096 17.2161 9.77508 17.4734C9.8092 17.7306 9.76503 17.9917 9.64779 18.2258C9.53054 18.46 9.34514 18.6573 9.11351 18.7945C8.88188 18.9316 8.61372 19.0029 8.34077 18.9999Z"/>
		</g>
	</symbol>

    <!-- next -->
	<symbol id="svg-next" viewBox="0 0 10 19">
		<g>
            <path d="M1.65923 18.9999C1.87269 19.0006 2.0836 18.9559 2.27646 18.869C2.46932 18.7821 2.63924 18.6553 2.77372 18.4978L9.67496 10.3557C9.88511 10.1129 10 9.80834 10 9.49402C10 9.1797 9.88511 8.87513 9.67496 8.63231L2.53082 0.490225C2.28829 0.2131 1.93978 0.0388259 1.56196 0.00574221C1.18414 -0.0273414 0.807958 0.083475 0.516167 0.313813C0.224376 0.54415 0.0408802 0.875142 0.00604534 1.23397C-0.0287886 1.5928 0.0878916 1.95008 0.330419 2.2272L6.71728 9.5008L0.544744 16.7744C0.370022 16.9736 0.259035 17.2161 0.224916 17.4734C0.190796 17.7306 0.23497 17.9917 0.352214 18.2258C0.469458 18.46 0.654862 18.6573 0.886491 18.7945C1.11812 18.9316 1.38628 19.0029 1.65923 18.9999Z"/>
		</g>
	</symbol>
</svg>