<svg style="width:0; height:0; visibility: hidden;" xmlns="http://www.w3.org/2000/svg">

    <!-- telegram -->
	<symbol id="svg-tg" viewBox="0 0 23 19">
		<g>
		    <path d="M22.3738 2.31452L19.073 17.8809C18.8238 18.9794 18.1746 19.2528 17.2519 18.7356L12.2223 15.0294L9.79569 17.3637C9.52694 17.6325 9.30272 17.8567 8.78476 17.8567L9.14647 12.7348L18.4676 4.31218C18.873 3.95124 18.3793 3.75046 17.8379 4.11218L6.31444 11.3684L1.35351 9.8153C0.274599 9.47858 0.255068 8.7364 1.57851 8.21843L20.9824 0.742646C21.8808 0.405927 22.6668 0.942646 22.3738 2.3153V2.31452Z"/>
		</g>
	</symbol>

    <!-- vkontakte -->
	<symbol id="svg-vk" viewBox="0 0 25 16">
		<g>
            <path fill-rule="evenodd" clip-rule="evenodd" d="M24.4271 1.69551C24.6 1.12676 24.4271 0.708008 23.599 0.708008H20.8646C20.1688 0.708008 19.8479 1.06947 19.674 1.46842C19.674 1.46842 18.2833 4.79759 16.3135 6.96009C15.676 7.58717 15.3865 7.78613 15.0385 7.78613C14.8646 7.78613 14.6031 7.58717 14.6031 7.01738V1.69551C14.6031 1.01217 14.4115 0.708008 13.8323 0.708008H9.53229C9.09792 0.708008 8.83646 1.02467 8.83646 1.32572C8.83646 1.97259 9.82187 2.12259 9.92292 3.94342V7.89967C9.92292 8.76738 9.76354 8.92467 9.41562 8.92467C8.48854 8.92467 6.23333 5.57988 4.89479 1.7528C4.63542 1.00801 4.37292 0.708008 3.67396 0.708008H0.9375C0.15625 0.708008 0 1.06947 0 1.46842C0 2.17884 0.927083 5.70801 4.31771 10.3757C6.57812 13.5632 9.76042 15.2913 12.6594 15.2913C14.3979 15.2913 14.6125 14.908 14.6125 14.2465V11.8372C14.6125 11.0695 14.7771 10.9163 15.3281 10.9163C15.7344 10.9163 16.4292 11.1163 18.0521 12.6528C19.9062 14.4747 20.2115 15.2913 21.2552 15.2913H23.9896C24.7708 15.2913 25.1625 14.908 24.9375 14.1497C24.6896 13.3955 23.8042 12.3007 22.6302 11.0018C21.9927 10.2622 21.0365 9.4653 20.7458 9.06634C20.3406 8.55488 20.4562 8.32676 20.7458 7.87155C20.7458 7.87155 24.0792 3.26113 24.426 1.69551H24.4271Z"/>
		</g>
	</symbol>

    <!-- whatsapp -->
	<symbol id="svg-wa" viewBox="0 0 21 20">
		<g>
            <path d="M18.9996 4.62485C15.9996 -0.000152886 9.8746 -1.37515 5.1246 1.49985C0.499602 4.37485 -1.0004 10.6248 1.9996 15.2498L2.2496 15.6248L1.2496 19.3748L4.9996 18.3748L5.3746 18.6248C6.9996 19.4998 8.7496 19.9998 10.4996 19.9998C12.3746 19.9998 14.2496 19.4998 15.8746 18.4998C20.4996 15.4998 21.8746 9.37485 18.9996 4.62485ZM16.3746 14.2498C15.8746 14.9998 15.2496 15.4998 14.3746 15.6248C13.8746 15.6248 13.2496 15.8748 10.7496 14.8748C8.6246 13.8748 6.8746 12.2498 5.6246 10.3748C4.8746 9.49985 4.4996 8.37485 4.3746 7.24985C4.3746 6.24985 4.7496 5.37485 5.3746 4.74985C5.6246 4.49985 5.8746 4.37485 6.1246 4.37485H6.7496C6.9996 4.37485 7.2496 4.37485 7.3746 4.87485C7.6246 5.49985 8.2496 6.99985 8.2496 7.12485C8.3746 7.24985 8.3746 7.49985 8.2496 7.62485C8.3746 7.87485 8.2496 8.12485 8.1246 8.24985C7.9996 8.37485 7.8746 8.62485 7.7496 8.74985C7.4996 8.87485 7.3746 9.12485 7.4996 9.37485C7.9996 10.1248 8.6246 10.8748 9.2496 11.4998C9.9996 12.1248 10.7496 12.6248 11.6246 12.9998C11.8746 13.1248 12.1246 13.1248 12.2496 12.8748C12.3746 12.6248 12.9996 11.9998 13.2496 11.7498C13.4996 11.4998 13.6246 11.4998 13.8746 11.6248L15.8746 12.6248C16.1246 12.7498 16.3746 12.8748 16.4996 12.9998C16.6246 13.3748 16.6246 13.8748 16.3746 14.2498Z"/>
		</g>
	</symbol>

	<!-- arrow-left -->
	<symbol id="svg-left" viewBox="0 0 36 32">
		<g>
		   <path d="M15.9163 1.41675L1.33301 16.0001L15.9163 30.5834M1.33301 16.0001H34.6663" stroke="white" stroke-width="2" stroke-linecap="round" stroke-linejoin="round"/>
		</g>
	</symbol>

	<!-- arrow-right -->
	<symbol id="svg-right" viewBox="0 0 50 50">
		<g>
		   <path d="M27.0837 10.4167L41.667 25.0001L27.0837 39.5834M41.667 25.0001H8.33366" stroke="white" stroke-width="2" stroke-linecap="round" stroke-linejoin="round"/>
		</g>
	</symbol>
</svg>