<svg width="45" height="45" viewBox="0 0 45 45" fill="none" xmlns="http://www.w3.org/2000/svg">
<path d="M8.37587 31.6679C6.26441 28.1056 5.52584 23.895 6.29883 19.8267C7.07182 15.7584 9.3032 12.1122 12.5741 9.57246C15.8449 7.03276 19.9303 5.77429 24.0633 6.03331C28.1963 6.29232 32.0926 8.051 35.0208 10.9792C37.949 13.9074 39.7077 17.8037 39.9667 21.9367C40.2257 26.0697 38.9672 30.1551 36.4275 33.4259C33.8878 36.6968 30.2416 38.9282 26.1733 39.7012C22.105 40.4742 17.8944 39.7356 14.3321 37.6241V37.6241L8.44677 39.2904C8.20565 39.361 7.94999 39.3653 7.7066 39.3031C7.46322 39.2408 7.24106 39.1142 7.06341 38.9366C6.88577 38.7589 6.75918 38.5368 6.69693 38.2934C6.63467 38.05 6.63903 37.7943 6.70955 37.5532L8.37587 31.6679Z" stroke="#006EFF" stroke-width="2" stroke-linecap="round" stroke-linejoin="round"/>
<path d="M27.0917 32C25.2398 32.0046 23.4053 31.6433 21.6935 30.9367C19.9818 30.2302 18.4265 29.1924 17.117 27.883C15.8076 26.5735 14.7698 25.0182 14.0633 23.3065C13.3567 21.5947 12.9954 19.7602 13 17.9084C13.0047 16.605 13.5257 15.3566 14.449 14.4366C15.3723 13.5166 16.6226 13 17.9259 13C18.141 12.9983 18.3525 13.0546 18.5383 13.163C18.724 13.2713 18.8771 13.4277 18.9815 13.6158L21.0398 17.2046C21.1622 17.4228 21.225 17.6694 21.222 17.9195C21.2189 18.1696 21.15 18.4146 21.0222 18.6296L19.3685 21.3917C20.2156 23.276 21.724 24.7844 23.6083 25.6315L26.3704 23.9778C26.5854 23.85 26.8304 23.7811 27.0805 23.778C27.3306 23.775 27.5772 23.8378 27.7954 23.9602L31.3842 26.0185C31.5723 26.1229 31.7287 26.276 31.837 26.4617C31.9454 26.6475 32.0017 26.859 32 27.0741C31.9954 28.376 31.4773 29.6236 30.5583 30.5459C29.6393 31.4682 28.3936 31.9907 27.0917 32Z" stroke="#006EFF" stroke-width="2" stroke-linecap="round" stroke-linejoin="round"/>
</svg>
