<svg width="45" height="45" viewBox="0 0 45 45" fill="none" xmlns="http://www.w3.org/2000/svg">
<path d="M33.6523 23.8715C33.1167 22.8169 31.6055 21.9287 29.5969 23.4274C26.8614 25.5367 22.5 25.5367 22.5 25.5367C22.5 25.5367 18.1386 25.5367 15.4031 23.4274C13.3945 21.9287 11.8833 22.8169 11.3477 23.8715C10.3913 25.7217 11.4625 26.6283 13.8919 28.127C15.977 29.4222 18.8272 29.9032 20.6636 30.0883L19.1333 31.5684C16.9525 33.6592 14.8483 35.676 13.4137 37.0821C12.5528 37.9332 12.5528 39.2839 13.4137 40.0795L13.6815 40.3755C14.5423 41.2082 15.9578 41.2082 16.8186 40.3755L22.5 34.8619C24.6999 36.9526 26.7849 38.9694 28.2387 40.3755C29.0996 41.2082 30.496 41.2082 31.3759 40.3755L31.6246 40.0795C32.5045 39.2839 32.5045 37.9332 31.6246 37.0821L25.9241 31.5684L24.4129 30.0698C26.2302 29.9032 29.0422 29.4037 31.1081 28.127C33.5375 26.6283 34.6087 25.7217 33.6523 23.8715ZM22.5 8.75509C25.1398 8.75509 27.2823 10.8274 27.2823 13.3622C27.2823 15.9155 25.1398 17.9692 22.5 17.9692C19.8602 17.9692 17.7177 15.9155 17.7177 13.3622C17.7177 10.8274 19.8602 8.75509 22.5 8.75509ZM22.5 22.7243C27.8562 22.7243 32.1793 18.5428 32.1793 13.3622C32.1793 10.8792 31.1596 8.49786 29.3443 6.74212C27.5291 4.98637 25.0671 4 22.5 4C19.9329 4 17.4709 4.98637 15.6557 6.74212C13.8404 8.49786 12.8207 10.8792 12.8207 13.3622C12.8207 18.5428 17.1438 22.7243 22.5 22.7243Z" fill="white"/>
</svg>
