<svg width="24" height="24" viewBox="0 0 24 24" fill="none" xmlns="http://www.w3.org/2000/svg">
<path d="M16.4713 13.5535L16.4588 13.5483L16.446 13.5438L16.4395 13.5415C16.2624 13.479 15.9934 13.3842 15.7128 13.4158C15.3746 13.4538 15.1208 13.6526 14.9239 13.9343L14.9238 13.9343L14.9185 13.9422C14.6503 14.3418 13.8751 15.2794 13.6374 15.5547L13.6325 15.5603L13.6278 15.5661C13.5956 15.6057 13.5747 15.6226 13.566 15.6287C13.5481 15.6276 13.4816 15.6182 13.3366 15.5418L13.3294 15.5381L13.3222 15.5345C13.2532 15.501 13.1657 15.4627 13.0616 15.4173C12.4768 15.1617 11.3686 14.6774 10.0769 13.5078L10.0765 13.5074C8.89282 12.4376 8.09902 11.1163 7.84421 10.6861C7.81094 10.6247 7.80507 10.5926 7.80403 10.5845C7.80403 10.5845 7.80402 10.5844 7.80402 10.5844C7.80666 10.5787 7.8143 10.5644 7.8339 10.5394C7.86058 10.5054 7.896 10.468 7.95145 10.4118C8.09497 10.2664 8.27368 10.0476 8.42787 9.85885C8.49167 9.78076 8.55127 9.7078 8.60245 9.64731C8.82925 9.37918 8.94077 9.15137 9.05682 8.91432C9.06829 8.89089 9.0798 8.86737 9.09147 8.84372L9.0916 8.84378L9.09657 8.83307C9.32128 8.34921 9.19322 7.93973 9.05768 7.66505C9.05769 7.66507 9.05761 7.66491 9.05743 7.66454C9.0572 7.66405 9.0568 7.66323 9.05623 7.662L9.05224 7.6534L9.03923 7.62439C9.02858 7.60029 9.01506 7.56905 8.99879 7.53089C8.96627 7.45466 8.92436 7.35462 8.87527 7.23626C8.77719 6.99975 8.65203 6.69389 8.51919 6.36697C8.25344 5.71299 7.95844 4.97849 7.79032 4.55258L7.79036 4.55257L7.78767 4.54602C7.59618 4.08033 7.35831 3.77209 7.03938 3.6168C6.77853 3.48979 6.46551 3.49954 6.41865 3.501C6.41529 3.50111 6.4133 3.50117 6.4128 3.50114L6.39596 3.5H6.3791H5.56811C5.16239 3.5 4.58032 3.64668 4.08282 4.19463L4.08273 4.19455L4.0755 4.20288C4.04787 4.23469 4.0155 4.27063 3.97926 4.31087C3.53308 4.80629 2.5 5.95336 2.5 8.07462C2.5 9.23014 2.91299 10.3384 3.33022 11.1706C3.74505 11.9981 4.18533 12.5938 4.29986 12.7485C4.30812 12.7605 4.32007 12.7783 4.33564 12.8014C4.73353 13.3924 7.50079 17.5024 11.6512 19.3177C12.6699 19.7725 13.4659 20.0357 14.084 20.2271C15.1828 20.5849 16.1805 20.5245 16.9412 20.4169L16.9443 20.4165C17.4456 20.3424 18.1351 20.0471 18.7323 19.6581C19.3168 19.2773 19.9388 18.7257 20.1648 18.0665C20.3558 17.531 20.4536 17.0316 20.4867 16.631C20.5033 16.4309 20.5044 16.2474 20.49 16.0912C20.4779 15.9591 20.4491 15.7691 20.3527 15.6155C20.2238 15.4103 20.0379 15.2913 19.8836 15.2081C19.794 15.1598 19.6759 15.1044 19.5556 15.0481C19.4874 15.0162 19.4185 14.9839 19.3539 14.9525C19.2595 14.9065 19.0708 14.8134 18.8325 14.6957C18.061 14.3148 16.7692 13.677 16.4713 13.5535Z" stroke="#185CFF"/>
</svg>
