<svg width="45" height="45" viewBox="0 0 45 45" fill="none" xmlns="http://www.w3.org/2000/svg">
<path d="M38.8315 6.8522C38.8315 6.8522 42.4737 5.43189 42.169 8.88095C42.0687 10.3013 41.1584 15.2728 40.4496 20.6494L38.0215 36.5775C38.0215 36.5775 37.819 38.911 35.9974 39.3169C34.1768 39.7219 31.4449 37.8966 30.9387 37.4906C30.5337 37.186 23.3505 32.6203 20.8212 30.3891C20.1124 29.7797 19.3024 28.5628 20.9224 27.1425L31.5452 16.9969C32.7593 15.78 33.9734 12.9394 28.9146 16.3885L14.749 26.026C14.749 26.026 13.1299 27.0413 10.0952 26.1281L3.51774 24.0985C3.51774 24.0985 1.08961 22.5769 5.23805 21.0553C15.3565 16.2872 27.8018 11.4178 38.8296 6.8522H38.8315Z" fill="white"/>
</svg>
