<svg width="45" height="45" viewBox="0 0 45 45" fill="none" xmlns="http://www.w3.org/2000/svg">
<path d="M40.431 33.9981H36.1626C34.5477 33.9981 34.0612 32.6997 31.1663 29.824C28.6364 27.4036 27.5679 27.1026 26.9279 27.1026C26.0428 27.1026 25.8014 27.3441 25.8014 28.5534V32.3653C25.8014 33.3963 25.4646 34 22.7512 34C20.1189 33.8244 17.5663 33.0306 15.3035 31.6838C13.0408 30.337 11.1328 28.4759 9.73657 26.2537C6.4214 22.1576 4.11473 17.3502 3 12.2137C3 11.5784 3.24327 11.0025 4.46333 11.0025H8.72982C9.82639 11.0025 10.2212 11.4874 10.6516 12.6075C12.7231 18.6597 16.2579 23.9242 17.6932 23.9242C18.2434 23.9242 18.4829 23.6827 18.4829 22.3211V16.0869C18.3014 13.2428 16.78 13.0032 16.78 11.9741C16.7993 11.7026 16.9244 11.4492 17.1288 11.2678C17.3332 11.0864 17.6008 10.9912 17.8747 11.0025H24.5813C25.4983 11.0025 25.8014 11.4558 25.8014 12.5444V20.9594C25.8014 21.8678 26.1944 22.1687 26.4713 22.1687C27.0215 22.1687 27.4444 21.8678 28.453 20.8684C30.615 18.251 32.3813 15.3348 33.6963 12.2118C33.8309 11.8369 34.0854 11.5159 34.4208 11.2979C34.7563 11.0799 35.1544 10.9768 35.5545 11.0044H39.8228C41.1028 11.0044 41.3741 11.6397 41.1028 12.5462C39.5503 15.9985 37.6294 19.2755 35.3729 22.3211C34.9126 23.0177 34.7292 23.3799 35.3729 24.1973C35.7959 24.8326 37.2929 26.0735 38.2977 27.2531C39.7611 28.702 40.9755 30.3776 41.8943 32.213C42.2611 33.3944 41.6492 33.9981 40.431 33.9981Z" fill="white"/>
</svg>
