<svg width="40" height="40" viewBox="0 0 40 40" fill="none" xmlns="http://www.w3.org/2000/svg">
<path d="M31.5382 7.6921C30.0143 6.16052 28.154 5.44147 26.1535 4.61518C24.153 3.78889 22.1656 3.06921 19.9996 3.07672C10.924 3.07672 3.07617 10.2006 3.07617 19.2306C3.07617 22.1248 3.95443 25.2113 5.38391 27.6921L3.07617 36.1536L11.5379 33.8459C13.948 35.1525 17.2403 36.1536 19.9996 36.1536C29.0751 36.1536 36.1537 28.2605 36.1537 19.2306C36.1537 14.8479 34.6465 10.7848 31.5382 7.6921ZM19.9996 33.0767C17.5395 33.0767 15.1873 32.7786 13.0764 31.5383L12.3071 30.769L6.9224 32.3075L8.46089 26.9229H7.69164C6.3249 24.7513 6.15505 21.7928 6.15315 19.2306C6.15315 11.7221 12.4532 6.15364 19.9996 6.15364C23.6564 6.15364 26.6541 7.4198 29.2305 9.99979C30.5062 11.2633 31.6198 12.9601 32.3075 14.6152C32.9951 16.2703 33.0834 17.4396 33.0767 19.2306C33.11 26.739 27.5459 33.0767 19.9996 33.0767ZM26.9228 23.0767C26.5072 22.8783 24.9807 21.6871 24.615 21.5383C24.2327 21.4059 23.3591 21.1413 23.0765 21.5383C22.794 21.9517 22.54 22.8121 22.3073 23.0767C22.0746 23.3579 21.9536 24.0609 21.538 23.8459C21.1225 23.6475 19.2543 22.9275 17.6918 21.5383C16.4618 20.4467 15.6334 18.8748 15.3841 18.4613C15.1514 18.0479 15.9373 17.9071 16.1533 17.6921C16.3362 17.5102 15.9539 17.1544 16.1533 16.9229C16.3528 16.6913 16.7896 16.4183 16.9226 16.1536C17.0556 15.8725 17.0223 15.5829 16.9226 15.3844C16.8228 15.1859 15.7165 13.1344 15.3841 12.3075C15.0517 11.5136 14.8642 11.5548 14.6148 11.5383H13.8456C13.563 11.5383 13.4587 11.894 13.0764 12.3075C12.7107 12.7209 11.5379 14.136 11.5379 16.1536C11.5379 18.1713 12.8769 19.7352 13.0764 19.9998C13.2758 20.2809 15.8773 24.384 19.9996 26.1536C20.9803 26.5836 21.7089 26.7409 22.3073 26.9229C23.288 27.2371 23.9003 27.0221 24.615 26.9229C25.4129 26.8071 27.3596 26.3436 27.692 25.3844C28.0411 24.4252 27.8084 23.2586 27.692 23.0767C27.5757 22.8948 27.3383 23.2752 26.9228 23.0767Z" fill="#353F4B"/>
</svg>
