<svg width="45" height="45" viewBox="0 0 45 45" fill="none" xmlns="http://www.w3.org/2000/svg">
<g clip-path="url(#clip0_58_14892)">
<path fill-rule="evenodd" clip-rule="evenodd" d="M22.5 7.5C24.1031 7.5 25.7475 7.54125 27.3412 7.60875L29.2238 7.69875L31.0256 7.80563L32.7131 7.92L34.2544 8.04C35.927 8.16802 37.5008 8.88178 38.6991 10.0557C39.8974 11.2296 40.6433 12.7885 40.8056 14.4581L40.8806 15.255L41.0213 16.9612C41.1525 18.7294 41.25 20.6569 41.25 22.5C41.25 24.3431 41.1525 26.2706 41.0213 28.0388L40.8806 29.745C40.8563 30.0188 40.8319 30.2831 40.8056 30.5419C40.6432 32.2118 39.8971 33.7709 38.6984 34.9449C37.4997 36.1188 35.9254 36.8324 34.2525 36.96L32.715 37.0781L31.0275 37.1944L29.2238 37.3012L27.3412 37.3912C25.7284 37.4613 24.1143 37.4976 22.5 37.5C20.8857 37.4976 19.2716 37.4613 17.6588 37.3912L15.7762 37.3012L13.9744 37.1944L12.2869 37.0781L10.7456 36.96C9.07303 36.832 7.49916 36.1182 6.30089 34.9443C5.10261 33.7704 4.3567 32.2115 4.19437 30.5419L4.11938 29.745L3.97875 28.0388C3.83538 26.1959 3.75908 24.3484 3.75 22.5C3.75 20.6569 3.8475 18.7294 3.97875 16.9612L4.11938 15.255C4.14375 14.9812 4.16812 14.7169 4.19437 14.4581C4.35664 12.7888 5.10228 11.2302 6.30017 10.0563C7.49806 8.88238 9.07149 8.16844 10.7438 8.04L12.2831 7.92L13.9706 7.80563L15.7744 7.69875L17.6569 7.60875C19.2703 7.53869 20.885 7.50243 22.5 7.5ZM18.75 17.9531V27.0469C18.75 27.9131 19.6875 28.4531 20.4375 28.0219L28.3125 23.475C28.4839 23.3764 28.6262 23.2343 28.7252 23.0631C28.8241 22.892 28.8763 22.6977 28.8763 22.5C28.8763 22.3023 28.8241 22.108 28.7252 21.9369C28.6262 21.7657 28.4839 21.6236 28.3125 21.525L20.4375 16.98C20.2664 16.8812 20.0724 16.8292 19.8748 16.8293C19.6773 16.8293 19.4832 16.8814 19.3122 16.9802C19.1411 17.079 18.9991 17.2211 18.9005 17.3922C18.8018 17.5634 18.7499 17.7575 18.75 17.955V17.9531Z" fill="white"/>
</g>
<defs>
<clipPath id="clip0_58_14892">
<rect width="45" height="45" fill="white"/>
</clipPath>
</defs>
</svg>
