<svg width="25" height="25" viewBox="0 0 25 25" fill="none" xmlns="http://www.w3.org/2000/svg">
<path d="M20.5168 12.792C20.517 12.6602 20.488 12.53 20.4318 12.4108C20.3757 12.2916 20.2937 12.1863 20.1919 12.1026L16.7494 8.6671C16.5851 8.50298 16.3623 8.41079 16.1301 8.41079C15.8978 8.41079 15.6751 8.50298 15.5108 8.6671C15.4296 8.74827 15.3652 8.84464 15.3212 8.9507C15.2773 9.05677 15.2546 9.17045 15.2546 9.28526C15.2546 9.40007 15.2773 9.51375 15.3212 9.61981C15.3652 9.72588 15.4296 9.82225 15.5108 9.90342L17.5183 11.9156L5.03363 11.9156C4.80119 11.9156 4.57828 12.008 4.41392 12.1723C4.24956 12.3367 4.15723 12.5596 4.15723 12.792C4.15723 13.0245 4.24956 13.2474 4.41392 13.4118C4.57828 13.5761 4.80119 13.6684 5.03363 13.6684L17.53 13.6684L15.5049 15.6807C15.4235 15.7619 15.359 15.8583 15.3149 15.9645C15.2709 16.0707 15.2482 16.1845 15.2482 16.2994C15.2482 16.4144 15.2709 16.5282 15.3149 16.6344C15.359 16.7405 15.4235 16.837 15.5049 16.9182C15.5863 16.9996 15.6829 17.0642 15.7893 17.1083C15.8957 17.1524 16.0097 17.175 16.1248 17.175C16.24 17.175 16.354 17.1524 16.4603 17.1083C16.5667 17.0642 16.6633 16.9996 16.7447 16.9182L20.2597 13.4079C20.3417 13.3278 20.4068 13.2319 20.451 13.1261C20.4951 13.0203 20.5175 12.9067 20.5168 12.792V12.792Z" fill="#346CFF"/>
</svg>
