<svg width="10" height="19" viewBox="0 0 10 19" fill="none" xmlns="http://www.w3.org/2000/svg">
<path d="M1.65923 18.9999C1.87269 19.0006 2.0836 18.9559 2.27646 18.869C2.46932 18.7821 2.63924 18.6553 2.77372 18.4978L9.67496 10.3557C9.88511 10.1129 10 9.80834 10 9.49402C10 9.1797 9.88511 8.87513 9.67496 8.63231L2.53082 0.490225C2.28829 0.2131 1.93978 0.0388259 1.56196 0.00574221C1.18414 -0.0273414 0.807958 0.083475 0.516167 0.313813C0.224376 0.54415 0.0408802 0.875142 0.00604534 1.23397C-0.0287886 1.5928 0.0878916 1.95008 0.330419 2.2272L6.71728 9.5008L0.544744 16.7744C0.370022 16.9736 0.259035 17.2161 0.224916 17.4734C0.190796 17.7306 0.23497 17.9917 0.352214 18.2258C0.469458 18.46 0.654862 18.6573 0.886491 18.7945C1.11812 18.9316 1.38628 19.0029 1.65923 18.9999Z" fill="#2C2762"/>
</svg>
