<svg width="10" height="19" viewBox="0 0 10 19" fill="none" xmlns="http://www.w3.org/2000/svg">
<path d="M8.34077 18.9999C8.12731 19.0006 7.9164 18.9559 7.72354 18.869C7.53068 18.7821 7.36076 18.6553 7.22628 18.4978L0.325041 10.3557C0.114887 10.1129 0 9.80834 0 9.49402C0 9.1797 0.114887 8.87513 0.325041 8.63231L7.46918 0.490225C7.71171 0.2131 8.06022 0.0388259 8.43804 0.00574221C8.81586 -0.0273414 9.19204 0.083475 9.48383 0.313813C9.77562 0.54415 9.95912 0.875142 9.99395 1.23397C10.0288 1.5928 9.91211 1.95008 9.66958 2.2272L3.28272 9.5008L9.45526 16.7744C9.62998 16.9736 9.74096 17.2161 9.77508 17.4734C9.8092 17.7306 9.76503 17.9917 9.64779 18.2258C9.53054 18.46 9.34514 18.6573 9.11351 18.7945C8.88188 18.9316 8.61372 19.0029 8.34077 18.9999Z" fill="#2C2762"/>
</svg>
